<?xml version="1.0" encoding="utf-8"?>
<!-- Generator: Adobe Illustrator 16.0.0, SVG Export Plug-In . SVG Version: 6.00 Build 0)  -->
<!DOCTYPE svg PUBLIC "-//W3C//DTD SVG 1.1//EN" "http://www.w3.org/Graphics/SVG/1.1/DTD/svg11.dtd">
<svg version="1.1" id="Layer_2" xmlns="http://www.w3.org/2000/svg" xmlns:xlink="http://www.w3.org/1999/xlink" x="0px" y="0px"
	 width="260.999px" height="30.045px" viewBox="0 0 260.999 30.045" enable-background="new 0 0 260.999 30.045"
	 xml:space="preserve">
<path fill="#38FFE5" d="M254.514,17.419c-0.2-0.183-0.37-0.323-0.53-0.454c1.914-0.763,3.743-1.741,5.717-2.277
	c0.016,0.002,0.027,0.007,0.041,0.011c1.21,0.172,1.744-1.658,0.707-2.221c-6.029-3.248-13.793-4.3-20.328-6.528
	c-3.879-1.322-7.969-1.153-11.824-2.745c-0.738-0.306-1.43-0.479-2.111-0.598c-0.204-0.486-0.654-0.875-1.338-0.934
	C207.423,0.096,29.29,0.309,21.927,1.233c-0.587-1.382-1.984-1.402-3.956-1.021c-0.604,0.117-0.92,0.565-1.151,1.063
	C12.803,1.03,8.087,0.856,4.277,1.854C-0.74,3.172,0.912,8.446,0.472,12.278c-0.415,3.592-1.432,8.31,1.946,10.739
	c0.684,0.498,1.506,0.841,2.373,1.11c-0.064,0.575-0.11,1.145,0.108,1.726c0.537,1.409,1.976,2.131,3.441,2.271
	c1.586,0.145,3.223,0.129,4.813,0.167c0.809,0.019,1.616,0.029,2.361-0.102c0.654,0.516,1.623,0.708,2.39,0.767
	c1.063,0.081,2.196-0.17,3.172-0.615c0.384,0.039,0.75,0.098,1.146,0.113c1.819,0.088,3.254,0.706,4.993,0.997
	c3.247,0.536,7.241,0.204,10.454-0.5c4.25,0.306,8.571-0.031,12.821,0.05c9.058,0.165,18.089,0.914,27.159,1.021
	c17.241,0.208,34.485-1.083,51.714-0.869c16.982,0.211,33.96-0.069,50.906,0.048c8.09,0.057,16.29-0.289,24.397-0.681
	c8.141-0.389,16.343,0.285,24.407-0.857c0.408-0.057,0.731-0.219,0.976-0.445c3.441-0.177,6.878-1.875,10.023-3.02
	c2.442-0.887,5.426-2.741,8.143-2.724c2.096,0.017,4.113-0.543,5.857-1.642C254.854,19.333,255.323,18.157,254.514,17.419z
	 M72.343,3.835c17.176,0.018,34.349,0.325,51.523,0.531c17.27,0.211,34.539-0.104,51.805,0.23
	c13.397,0.254,29.276,3.167,43.094,1.353c-0.725,0.819-1.151,1.859-1.063,3.305c0.058,0.926,0.492,1.663,1.127,2.251
	c-14.844-0.563-29.708-0.679-44.565-0.481c-16.092,0.208-33.511-1.184-49.435,0.97c-1.793,0.235-3.598,0.416-5.408,0.589
	c-9.375,0.226-18.747,0.425-28.127,0.605c-5.994-0.134-11.973-0.332-17.836-0.402c-8.777-0.108-17.693,0.232-26.467,0.588
	c-8.154,0.328-16.916-0.041-24.936,1.269c0.166-2.42,0.354-4.836,0.537-7.256c0.1-1.296,0.372-2.822,0.202-4.195
	C39.022,4.966,56.054,3.823,72.343,3.835z M8.451,20.986c-0.461-0.088-1.092-0.146-1.739-0.251c-0.107-0.036-0.228-0.052-0.35-0.063
	c-1.182-0.217-2.352-0.636-2.632-1.728c-0.374-1.457,0.051-3.382,0.152-4.879c0.096-1.359,0.881-3.775,0.626-5.236
	C3.871,5.181,6.015,4.737,9.114,4.61c2.584-0.11,4.742-0.495,7.143-0.866c-0.035,0.72-0.051,1.443-0.267,2.117
	c-0.269,0.803-0.606,1.753-0.734,2.579c-0.604,3.985-1.064,8.461-0.687,12.491C12.527,20.835,10.542,21.375,8.451,20.986z
	 M17.367,19.025c0.231-1.694-0.177-3.755-0.105-5.508c0.099-2.379,0.544-4.618,1.122-6.923c0.213-0.482,0.358-0.978,0.436-1.491
	c0.003-0.22,0.664-2.979,1.123-2.956c-0.012,0.247,0.105,0.455,0.284,0.602c0.005,0.019,0.009,0.027,0.009,0.046
	c0.061,0.348,0.289,0.554,0.567,0.665c-0.146,2.477-0.792,5.136-1.115,7.5c-0.401,2.872-0.654,5.824-0.826,8.717
	c-0.071,1.167,0.019,2.183,0.267,3.024C17.257,22.411,17.112,20.88,17.367,19.025z M130.396,22.353
	c-18.438-0.024-36.877-0.045-55.314-0.012c-9.217,0.019-18.429,0.238-27.643,0.476c-7.043,0.177-14.555,1.194-21.645,0.873
	c-0.009-0.5-0.355-0.981-1.035-1.086c-1.262-0.188-2.846,0.527-3.018-1.117c-0.192-1.868,0.044-3.721,0.214-5.582
	c0.048,0.007,0.105,0.018,0.165,0.014c1.836-0.199,3.693-0.362,5.551-0.514c-0.053,0.31,0.195,0.715,0.621,0.674
	C40,14.981,51.759,14.59,63.544,14.483c4.388,0.055,8.739,0.134,13.023,0.215c14.484,0.271,29.908,1.583,44.396-0.097
	c9.551-0.147,19.082-0.522,28.581-1.34c0.058,0,0.094-0.026,0.14-0.04c8.209,0.074,16.432,0.287,24.485-0.034
	c15.271-0.617,30.743-0.106,46.022,0.552c-1.104,0.873-1.742,2.067-1.35,3.936c0.331,1.543,1.518,2.896,3,3.841
	C191.421,21.484,160.912,22.394,130.396,22.353z M244.219,16.748c-5.297,1.564-11,4.184-16.501,5.523
	c0.064-0.38-0.174-0.826-0.656-0.867c-2.47-0.21-4.76-1.442-6.104-3.525c-1.744-2.705,2.306-3.61,3.853-4.169
	c0.848-0.313,0.646-1.646-0.164-1.854c-1.307-0.328-2.551-0.681-3.744-1.321c-3.837-2.064,0.9-4.555,2.901-5.51
	c0.271-0.061,0.553-0.11,0.819-0.183c2.139,0.473,3.99,1.554,6.198,2.153c3.489,0.938,6.979,1.264,10.392,2.533
	c3.24,1.203,6.589,2.345,9.99,3.288c-0.223,0.557-0.297,1.158-0.214,1.821c0.003,0.061,0.021,0.131,0.032,0.196
	C248.641,15.44,246.302,16.13,244.219,16.748z"/>
</svg>
