<?xml version="1.0" encoding="utf-8"?>
<!-- Generator: Adobe Illustrator 16.0.0, SVG Export Plug-In . SVG Version: 6.00 Build 0)  -->
<!DOCTYPE svg PUBLIC "-//W3C//DTD SVG 1.1//EN" "http://www.w3.org/Graphics/SVG/1.1/DTD/svg11.dtd">
<svg version="1.1" id="Layer_1" xmlns="http://www.w3.org/2000/svg" xmlns:xlink="http://www.w3.org/1999/xlink" x="0px" y="0px"
	 width="168.002px" height="214.025px" viewBox="0 0 168.002 214.025" enable-background="new 0 0 168.002 214.025"
	 xml:space="preserve">
<g>
	<g>
		<path fill-rule="evenodd" clip-rule="evenodd" fill="#FFFFFF" d="M167.573,77.755c-0.03-3.902-1.291-6.01-5.103-7.109
			c-3.012-0.868-6.115-1.522-9.223-1.941c-3.882-0.523-7.81-0.707-12.087-1.068c3.482-4.164,3.739-8.543,2.443-13.119
			c-0.753-2.662-1.459-5.372-2.581-7.887c-1.572-3.525-3.164-7.229-6.832-9.158c-3.436-1.808-7.05-3.279-10.578-4.913
			c-3.826-1.771-8.28-2.553-10.844-6.368c-2.088-3.106-4.731-6.119-5.764-9.576c-1.121-3.758-0.943-7.992,0.857-11.852
			c0.816-1.751,0.08-2.535-1.822-2.58c-4.912-0.118-9.829-0.221-14.732-0.535c-2.176-0.14-4.443-0.476-6.445-1.277
			c-1.752-0.702-2.75-0.414-3.777,0.948C73.52,11.358,66.25,21.592,60.22,32.647c-6.634,12.162-13.297,24.31-20.006,36.431
			c-0.418,0.757-1.327,1.255-2.038,1.839c-0.648,0.532-1.715,0.888-1.941,1.545c-0.989,2.876-1.592,5.888-2.659,8.729
			c-0.355,0.944-1.574,1.938-2.584,2.202c-4.097,1.075-8.275,1.84-12.405,2.792c-1.915,0.441-3.321,1.104-2.905,3.737
			c0.367,2.317,0.022,4.782-0.249,7.155c-0.593,5.204-3.116,7.646-8.369,8.382c-1.192,0.168-2.374,0.417-3.569,0.563
			c-2.085,0.256-3.268,1.629-3.381,3.474c-0.216,3.539-0.063,7.101-0.063,10.261c1.575,0.297,2.827,0.356,3.944,0.775
			c3.813,1.429,7.521,3.158,11.385,4.424c2.203,0.722,3.187,1.745,3.042,4.073c-0.148,2.388-0.006,4.792-0.015,7.188
			c-0.05,13.188-0.104,26.375-0.173,39.563c-0.003,0.529-0.077,1.091-0.262,1.584c-0.888,2.362-0.225,4.265,1.547,5.912
			c2.292-1.611,3.828-4.394,4.13-7.563c0.171-1.791,0.991-4.188,0.156-5.267c-1.716-2.215-1.126-4.333-1.022-6.555
			c0.093-1.957,0.318-3.909,0.485-5.864c-0.508,1.617-0.568,3.27-0.814,4.893c-0.222,1.461-0.649,2.891-0.986,4.335
			c-0.343-0.072-0.686-0.144-1.027-0.215c0.799-12.982,1.597-25.965,2.398-38.98c2.082-0.087,2.951,0.522,2.688,2.41
			c-0.243,1.734-0.292,3.494-0.462,5.239c-0.635,6.505-1.286,13.009-1.93,19.514c0.139,0.014,0.277,0.028,0.416,0.042
			c1.017-8.706,2.035-17.412,3.077-26.333c6.604,2.42,12.852,4.681,19.06,7.047c0.476,0.182,0.938,1.118,0.941,1.705
			c0.054,11.813,0.041,23.625,0.041,35.11c-1.334,0.967-2.934,1.513-3.256,2.479c-0.816,2.449-2.328,3.892-4.533,5.036
			c-0.678,0.353-1.304,1.772-1.123,2.496c0.151,0.597,1.632,1.368,2.344,1.219c1.786-0.376,3.47-1.231,4.9-1.78v4.835
			c1.183-0.261,2.365-0.521,3.65-0.805c0.657,0.744,1.415,1.804,2.37,2.639c1.912,1.673,3.367-0.557,5.063-0.817
			c0.378-0.058,0.868-1.186,0.838-1.798c-0.151-3.143-0.394-6.283-0.734-9.41c-0.143-1.307-0.607-2.578-0.929-3.881
			c-1.38,0.151-2.355,0.258-3.548,0.389c-0.656-11.936,0.927-23.523,1.536-35.151c6.253,2.01,11.838,3.7,17.347,5.606
			c4.762,1.647,9.435,3.551,14.16,5.311c0.748,0.278,1.588,0.631,2.334,0.538c2.86-0.358,3.784,0.199,3.882,3.142
			c0.379,11.398,0.684,22.799,0.967,34.2c0.169,6.84,0.076,13.691,0.471,20.517c0.111,1.928,1.225,4.001,2.423,5.604
			c1.173,1.568,3.341,0.869,3.681-1.051c0.512-2.898,1.046-5.83,1.124-8.759c0.237-8.949,0.006-17.916,0.438-26.853
			c0.449-9.291,1.4-18.562,2.266-27.828c0.222-2.384,0.736-4.958,3.455-5.87c7.592-2.547,15.229-4.959,23.062-7.494
			c0.35,2.268,0.606,3.934,0.784,5.088c0.619-2.37,1.461-5.057,1.984-7.802c0.33-1.73-0.387-3.857,0.377-5.262
			c1.235-2.267,2.996-4.513,5.085-6c3.821-2.72,6.952-5.72,8.276-10.354c0.473-1.651,1.35-3.188,1.994-4.67
			c0.98,0.733,2.141,2.022,2.525,1.823c3.733-1.926,2.836,0.89,2.903,2.676c0.456,12.161,0.984,24.321,1.296,36.487
			c0.117,4.539-0.359,9.09-0.4,13.638c-0.014,1.531,0.69,3.065,0.707,4.602l0.778,2.61c0.002-1.344-0.116-2.41,1.743-3.184
			c1.25-0.519,2.35-2.726,2.492-4.271c0.293-3.191-0.207-6.446-0.189-9.673c0.072-13.189,0.066-26.384,0.488-39.563
			c0.068-2.145,1.637-5.025,3.418-6.168c3.641-2.335,4.174-6.205,4.563-9.32C168.435,89.993,167.621,83.836,167.573,77.755z
			 M39.788,182.889c-0.177-0.498-0.354-0.997-0.53-1.496c1.296-0.407,2.592-0.815,3.889-1.224c0.146,0.432,0.293,0.862,0.44,1.294
			C42.321,181.938,41.055,182.413,39.788,182.889z M162.851,72.521c0.949,0.366,1.497,1.762,2.232,2.681
			c-1.44,0.863-3.278,2.789-4.26,2.426c-10.046-3.721-20.162-1.28-30.235-0.72c-5.152,0.287-10.281,0.983-15.648,1.519
			c-0.758-1.672-1.578-3.481-2.565-5.658c3.882-0.462,7.329-0.881,10.778-1.281c5.953-0.691,11.893-1.672,17.867-1.979
			C148.439,69.125,155.835,69.809,162.851,72.521z M82.245,87.686c-0.196-0.423,0.311-1.548,0.795-1.82
			c0.943-0.53,2.079-0.81,3.168-0.977c7.14-1.094,14.282-2.17,21.442-3.126c0.789-0.105,2.104,0.341,2.465,0.949
			c2.764,4.646,5.352,9.395,8.073,14.253c-2.349,0.672-4.495,1.286-6.642,1.9c0.051,0.251,0.1,0.503,0.148,0.754
			c3.312-0.554,6.623-1.107,9.934-1.661c0.031,0.167,0.063,0.334,0.093,0.5c-2.727,0.815-5.426,1.752-8.195,2.377
			c-0.952,0.215-2.147-0.191-3.122-0.584c-5.992-2.413-11.912-5.016-17.963-7.271c-1.182-0.439-2.826,0.494-4.268,0.552
			c-0.979,0.039-2.398-0.005-2.879-0.604C84.038,91.364,83.095,89.519,82.245,87.686z M83.683,94.825
			c-1.924,0.347-3.848,0.692-5.771,1.039c0.02-0.33,0.039-0.661,0.059-0.992c2.727,0.328,2.727,0.328,4.618-4.031
			C82.953,92.169,83.318,93.497,83.683,94.825z M81.918,78.225c8.085-1.418,15.224-2.695,22.378-3.866
			c0.5-0.082,1.343,0.49,1.656,0.989c0.922,1.465,1.657,3.045,2.67,4.97c-8.801,1.425-17.245,2.793-25.817,4.181
			C82.52,82.474,88.324,80.432,81.918,78.225z M104.375,72.911c-9.098,1.619-18.194,3.237-27.292,4.855
			c-0.032-0.323-0.063-0.647-0.095-0.972c9.082-1.551,18.163-3.102,27.245-4.652C104.28,72.398,104.328,72.655,104.375,72.911z
			 M101.85,58.267l0.932-0.346c5.911,12.332,11.822,24.665,17.733,36.997C115.767,92.792,101.574,63.694,101.85,58.267z
			 M132.058,94.609c-2.952,0.531-5.903,1.062-9.21,1.656c-2.416-5.223-4.83-10.442-7.215-15.598
			c3.775-2.778,36.268-4.257,42.889-1.462c-2.235,0.739-4.439,1.597-6.714,2.188c-2.862,0.745-5.819,1.139-8.669,1.925
			c-4.333,1.194-6.533,4.19-7.731,8.521c-0.622,2.252-2.375,4.916-4.366,5.92c-4.123,2.079-8.748,3.173-13.166,4.672l-0.287-0.806
			C122.154,98.876,128.319,99.566,132.058,94.609z M106.594,3.574c-0.627,1.906-1.125,3.422-1.656,5.037
			c-1.983-1.782-3.671-3.298-5.606-5.037H106.594z M49.152,60.038c3.567-6.984,6.752-14.161,10.22-21.196
			c1.384-2.808,2.981-5.528,4.705-8.143c0.678-1.027,1.994-1.624,2.966-2.478c0.613-0.54,1.208-1.137,1.673-1.803
			c4.751-6.806,9.447-13.649,14.253-20.417c0.429-0.605,1.495-1.008,2.296-1.063c2.772-0.192,5.56-0.299,8.337-0.238
			c6.486,0.141,10.377,4.312,10.997,10.739c0.771,7.987,5.983,13.026,12.665,16.637c3.076,1.662,6.438,2.842,9.742,4.044
			c8.612,3.134,11.936,10.238,14.076,18.27c1.07,4.02,1.744,8.048-1.314,11.554c-0.697,0.799-1.852,1.56-2.869,1.67
			c-8.193,0.89-16.402,1.655-24.617,2.33c-0.633,0.053-1.537-0.734-1.995-1.362c-7.101-9.727-10.233-21.197-14.216-32.291
			c-1.496-4.17-2.799-8.409-4.318-12.57c-0.457-1.25-1.346-2.344-2.037-3.509c-0.328,0.154-0.656,0.309-0.986,0.463
			c0.429,1.441,0.789,2.908,1.295,4.322c2.832,7.905,5.711,15.794,8.537,23.702c0.371,1.036,0.625,2.136,0.768,3.228
			c0.834,6.381,0.877,12.932,4.809,18.973c-6.377,1.104-12.223,1.981-18.007,3.157c-4.607,0.936-9.095,2.518-13.726,3.237
			c-1.978,0.308-4.614-0.27-6.208-1.443c-5.07-3.733-10.252-4.171-16.025-2.117c-2.965,1.055-6.083,0.979-8.981,0.094
			C43.965,69.057,46.79,64.665,49.152,60.038z M37.294,73.083c3.948,4.114,8.618,3.154,13.075,1.996
			c5.483-1.424,10.36-1.51,15.255,2.155c1.961,1.468,5.257,1.233,7.968,1.625c3.052,0.442,6.128,0.718,9.091,1.054
			c-1.478,4.762-2.786,8.982-4.135,13.329c-14.615-2.799-29.561-5.66-44.722-8.563C34.979,80.822,36.083,77.132,37.294,73.083z
			 M35.983,87.968c6.143,2.017,12.999,1.759,19.429,3.056c8.19,1.652,16.279,3.813,24.378,5.884c2.034,0.52,3.764,0.306,5.521-0.733
			c3.281-1.94,6.55-2.456,10.233-0.679c4.142,1.996,8.656,3.246,12.728,5.358c1.784,0.926,3.171,2.408,5.501,1.677
			c-0.036,0.283-0.072,0.566-0.107,0.85c-3.912,0.618-7.867,1.04-11.721,1.911c-3.727,0.842-7.199,0.445-10.859-0.471
			c-4.657-1.167-9.505-1.56-14.209-2.569c-8.938-1.92-17.828-4.067-26.749-6.07c-8.039-1.806-16.095-3.535-24.139-5.322
			c-1.832-0.407-3.643-0.914-5.4-1.724C25.708,88.055,30.342,86.116,35.983,87.968z M95.695,109.829
			c-0.075,2.569-0.33,5.133-0.432,7.702c-0.131,3.266-2.178,4.974-6.208,5.251c1.498-2.236,3.63-4.396,4.481-6.975
			c0.878-2.664,0.512-5.735,0.689-8.629c0.352-0.055,0.703-0.11,1.055-0.165C95.428,107.952,95.723,108.896,95.695,109.829z
			 M16.981,89.821c0.238-0.009,0.477-0.018,0.715-0.027c0.216,0.502,0.622,1.004,0.619,1.504c-0.019,3.396-0.02,6.799-0.231,10.187
			c-0.18,2.884-1.428,3.795-4.798,3.735C17.042,100.681,17.016,95.252,16.981,89.821z M4.823,107.859
			c-0.995,2.419-1.952,4.744-2.854,6.938C0.082,111.446,1.264,108.451,4.823,107.859z M19.693,175.471
			c0.142-2.206,0.283-4.411,0.447-6.968C22.329,170.809,22.286,173.647,19.693,175.471z M22.094,129.638
			c-0.661,8.635-1.278,17.272-1.894,25.91c-0.206,2.895-0.362,5.793-0.542,8.689c-0.065-0.006-0.132-0.012-0.197-0.018v-36.973
			C21.738,126.848,22.234,127.809,22.094,129.638z M49.593,180.156c-1.623-3.081-1.875-3.148-5.025-1.354
			c0.369-3.542,1.988-3.906,6.132-1.307C50.34,178.359,49.972,179.246,49.593,180.156z M47.894,154.508v-17.364
			c0.208-0.003,0.416-0.006,0.625-0.008v17.376C48.31,154.511,48.102,154.509,47.894,154.508z M49.096,169.04v-22.757
			c0.32,0.004,0.641,0.008,0.96,0.011c-0.293,7.583-0.586,15.165-0.878,22.747C49.15,169.041,49.123,169.04,49.096,169.04z
			 M51.864,148.815l-0.822-0.079c0.51-3.547-0.718-7.213,0.451-10.715c0.385,0.024,0.77,0.048,1.155,0.072
			C52.387,141.667,52.125,145.241,51.864,148.815z M71.697,141.774c6.472-1.646,7.928-1.217,8.066,2.337
			C76.977,143.305,74.337,142.539,71.697,141.774z M79.212,133.681c-5.575-1.118-11.147-2.251-16.728-3.344
			c-1.349-0.264-2.725-0.392-4.089-0.582c5.83,1.453,11.653,2.889,17.467,4.357c1.06,0.268,2.086,0.673,3.478,1.13v3.124
			c-8.033,0.673-14.914-3.291-22.228-5.422c-1.206-0.352-2.444-0.593-3.666-0.885c5.965,2.237,11.915,4.459,17.865,6.682
			c-0.005,0.214-0.009,0.427-0.014,0.641c-3.537-0.361-7.111-0.521-10.598-1.153c-2.337-0.424-4.523-1.618-6.829-2.287
			c-2.969-0.86-6.063-1.333-8.976-2.337c-8.138-2.803-16.211-5.794-24.311-8.708c-4.508-1.623-9.036-3.196-13.518-4.888
			c-1.331-0.502-2.538-1.331-3.593-2.509c3.037,0.597,6.138,0.975,9.099,1.83c8.862,2.559,17.684,5.258,26.493,7.996
			c4.854,1.509,9.648,3.206,14.47,4.817c-3.638-1.501-7.243-3.087-10.919-4.489c-11.422-4.356-22.968-8.283-35.073-10.412
			c-4.903-0.862-5.383-2.502-2.452-6.647c0.143,0.098,0.409,0.197,0.408,0.293c-0.052,4.03-0.016,3.895,4.17,5.086
			c15.39,4.38,30.75,8.859,46.126,13.288c0.882,0.254,1.799,0.387,2.7,0.575c-4.972-1.647-9.931-3.336-14.92-4.934
			c-8.192-2.623-16.396-5.212-24.61-7.764c-3.348-1.04-6.743-1.931-10.107-2.923c-0.808-0.238-1.577-0.608-2.363-0.918
			c0.055-0.292,0.11-0.584,0.165-0.876c0.865,0.04,1.773-0.077,2.59,0.143c12.229,3.295,24.442,6.653,36.67,9.959
			c10.704,2.893,21.425,5.722,32.122,8.639c0.674,0.184,1.203,0.894,1.8,1.357C79.63,132.907,79.422,133.294,79.212,133.681z
			 M51.47,123.01c-11.25-2.95-22.361-6.423-33.559-9.575c-3.333-0.938-6.756-1.562-10.088-2.707
			c3.104-0.553,5.796-2.041,9.293-0.641c5.371,2.151,11.083,3.377,16.982,3.927c2.625,0.244,5.94,0.221,8.114,2.672
			c0.262,0.296,0.745,0.629,1.085,0.591c4.816-0.541,8.862,2.08,13.289,3.112c2.849,0.663,5.836,0.768,8.658,1.511
			c4.41,1.162,8.913,2.227,12.439,4.831c0.967-0.273,1.693-0.479,2.419-0.686c0.102,1.184,0.204,2.368,0.304,3.534
			C69.788,129.934,60.854,125.471,51.47,123.01z M80.898,121.988c-11.294-2.433-22.493-5.297-33.74-7.948
			c-4.681-1.104-9.389-2.097-14.072-3.192c-5.366-1.255-10.72-2.566-16.38-3.926c4.354-4.966,1.447-10.766,3.145-16.095
			c4.473,0.983,8.955,1.928,13.417,2.959c8.474,1.958,16.905,4.114,25.412,5.914c9.573,2.025,19.214,3.731,28.819,5.612
			c5.328,1.043,5.32,1.075,5.43,6.298C93.067,118.271,87.439,123.396,80.898,121.988z M93.246,155.122
			c-0.039-3.023-0.035-6.447-4.906-7.391c4.365-1.461,8.028-2.687,12.029-4.025c-4.713,14.755-3.221,29.352-3.847,43.764
			c-0.147,3.388-0.075,6.785-0.198,10.175c-0.018,0.512-0.547,1.006-0.838,1.509c-0.473-0.346-1.312-0.646-1.359-1.042
			c-0.359-2.988-0.757-5.993-0.781-8.996C93.257,177.784,93.39,166.451,93.246,155.122z M95.297,209.987
			c-0.867-0.575-1.262-1.858-1.85-2.852c0.35-0.204,0.701-0.409,1.052-0.613c1.054,0.438,2.108,0.878,3.162,1.317
			c0.09,0.271,0.179,0.544,0.269,0.815C97.023,209.142,95.699,210.254,95.297,209.987z M98.838,203.962
			c-1.896-12.452-0.96-24.891,0-37.328V203.962z M99.34,160.468c-0.198-0.025-0.396-0.051-0.596-0.075
			c0.479-4.296,0.959-8.592,1.439-12.888c0.361,0.045,0.723,0.091,1.084,0.136C100.625,151.916,99.982,156.191,99.34,160.468z
			 M125.264,133.357c-2.574,1.021-5.264,1.767-7.92,2.571c-8.133,2.463-16.268,4.924-24.421,7.315
			c-1.748,0.514-3.583,0.73-5.671,1.142c-0.3-1.956-1.17-3.854-0.561-4.716c0.617-0.873,2.699-0.711,4.135-1.022
			c7.764-1.68,15.604-3.086,23.258-5.163c4.123-1.118,7.938-3.374,11.873-5.155c0.895-0.405,1.715-0.975,2.68-1.534
			C129.015,130.82,128.43,132.101,125.264,133.357z M138.553,118.163c-10.082,7.377-20.08,14.793-33.369,15.626
			c-4.704,0.295-9.32,1.928-13.986,2.903c-1.521,0.317-3.076,0.486-4.832,0.758c-0.262-2.585-0.671-4.91-0.686-7.238
			c-0.016-2.352,0.988-4.219,3.393-5.207c2.347-0.964,4.6-2.152,7.098-3.339c0.08,0.958,0.178,2.134,0.268,3.216
			c0.254-4.979,0.615-10.038,0.714-15.102c0.037-1.901,0.813-2.496,2.515-2.84c8.604-1.741,17.207-3.492,25.764-5.444
			c2.586-0.59,5.194-1.543,7.467-2.878c1.717-1.009,2.915-2.892,4.72-4.779c0.343,4.878,0.634,9.532,1.013,14.181
			c0.217,2.658,0.66,5.301,0.824,7.961C139.497,116.702,139.109,117.757,138.553,118.163z M157.9,152.07
			c0.003,1.938,1.033,4.619-2.973,5.479v-50.158c0.817-0.241,2.132-0.627,3.471-1.021c-0.282,5.972-0.756,11.737-0.782,17.505
			C157.574,133.271,157.885,142.671,157.9,152.07z M150.147,105.51c-0.069-0.365-0.141-0.731-0.21-1.097
			c2.375-0.276,4.774-0.427,7.119-0.864c2.396-0.446,4.738-1.175,7.104-1.779c0.102,0.229,0.202,0.458,0.303,0.688
			C160.002,104.798,155.162,105.525,150.147,105.51z M158.082,101.504c-2.438,0.481-4.908,0.863-7.383,1.085
			c-2.805,0.252-4.574,1.578-5.572,4.202c-1.131,2.975-2.448,5.878-3.684,8.812c-0.263-0.035-0.524-0.07-0.785-0.105
			c0-1.575,0.094-3.157-0.018-4.725c-0.404-5.659-0.988-11.308-1.263-16.972c-0.085-1.749-2.19-3.113-0.513-5.257
			c1.93-2.467,4.475-3.46,7.261-4.229c4.875-1.346,9.789-2.564,14.622-4.044c1.58-0.483,2.961-1.615,4.506-2.492
			c0,5.192-0.001,10.125,0.002,15.058C165.258,98.647,163.889,100.358,158.082,101.504z M82.994,100.948
			c3.263,0.914,6.531,1.806,9.799,2.707c0.067-0.252,0.137-0.503,0.205-0.754c-6.984-1.851-13.968-3.702-20.952-5.552
			c0.356,0.286,0.687,0.656,1.092,0.777C76.414,99.101,79.703,100.026,82.994,100.948z M72.046,97.349
			c-0.029-0.023-0.058-0.05-0.087-0.072l-0.048,0.036C71.956,97.325,72.001,97.337,72.046,97.349z M42.956,90.392
			c-5.598-0.561-11.196-1.121-16.794-1.681c-0.028,0.286-0.056,0.571-0.084,0.856c5.609,0.409,11.22,0.817,16.83,1.227
			C42.923,90.659,42.94,90.525,42.956,90.392z M71.959,97.277c-0.227-0.034-0.454-0.069-0.682-0.104
			c0.208,0.049,0.415,0.099,0.622,0.148C71.911,97.313,71.959,97.277,71.959,97.277z M58.621,94.158
			c-0.067,0.355-0.134,0.712-0.202,1.067c4.287,0.65,8.573,1.299,12.858,1.948C67.052,96.173,62.836,95.166,58.621,94.158z"/>
	</g>
</g>
</svg>
