<?xml version="1.0" encoding="utf-8"?>
<!-- Generator: Adobe Illustrator 16.0.0, SVG Export Plug-In . SVG Version: 6.00 Build 0)  -->
<!DOCTYPE svg PUBLIC "-//W3C//DTD SVG 1.1//EN" "http://www.w3.org/Graphics/SVG/1.1/DTD/svg11.dtd">
<svg version="1.1" id="Layer_2" xmlns="http://www.w3.org/2000/svg" xmlns:xlink="http://www.w3.org/1999/xlink" x="0px" y="0px"
	 width="364.957px" height="86.85px" viewBox="0 0 364.957 86.85" enable-background="new 0 0 364.957 86.85" xml:space="preserve">
<g>
	<path fill="#78FF00" stroke="#FFFFFF" stroke-miterlimit="10" d="M0,73.133l10.946-13.109c7.579,6.255,15.519,10.226,25.142,10.226
		c7.576,0,12.148-3.006,12.148-7.939v-0.24c0-4.688-2.885-7.098-16.961-10.707C14.316,47.034,3.37,42.34,3.37,25.621v-0.24
		C3.37,10.102,15.641,0,32.842,0C45.11,0,55.576,3.847,64.116,10.705L54.492,24.66c-7.459-5.175-14.796-8.302-21.893-8.302
		c-7.098,0-10.825,3.248-10.825,7.337v0.239c0,5.534,3.608,7.34,18.165,11.07c17.077,4.446,26.701,10.583,26.701,25.26v0.239
		c0,16.72-12.752,26.103-30.911,26.103C22.975,86.607,10.106,82.156,0,73.133z"/>
	<path fill="#78FF00" stroke="#FFFFFF" stroke-miterlimit="10" d="M73.617,4.449h18.286v39.937l21.411-23.456h21.892l-24.538,25.381
		l25.381,39.095h-21.171l-16.48-26.464l-6.494,6.857v19.604H73.617V4.449z"/>
	<path fill="#78FF00" stroke="#FFFFFF" stroke-miterlimit="10" d="M131.477,53.529v-0.241c0-18.402,13.112-33.562,31.877-33.562
		c21.532,0,31.396,16.719,31.396,35.006c0,1.441-0.121,3.127-0.242,4.81h-44.866c1.804,8.304,7.576,12.631,15.759,12.631
		c6.134,0,10.583-1.924,15.635-6.615l10.466,9.264c-6.015,7.456-14.676,12.029-26.343,12.029
		C145.792,86.85,131.477,73.254,131.477,53.529z M176.945,48.116c-1.082-8.184-5.894-13.714-13.592-13.714
		c-7.579,0-12.51,5.412-13.952,13.714H176.945z"/>
	<path fill="#78FF00" stroke="#FFFFFF" stroke-miterlimit="10" d="M204.132,67.121V36.566h-7.7V20.93h7.7V4.449h18.281v16.479
		h15.157v15.637h-15.157v27.549c0,4.21,1.805,6.255,5.894,6.255c3.37,0,6.377-0.843,9.024-2.285v14.674
		c-3.852,2.285-8.304,3.729-14.438,3.729C211.708,86.488,204.132,82.037,204.132,67.121z"/>
	<path fill="#78FF00" stroke="#FFFFFF" stroke-miterlimit="10" d="M241.298,53.529v-0.241c0-18.402,14.074-33.562,33.804-33.562
		c12.146,0,19.726,4.091,25.737,10.828l-11.184,12.027c-4.091-4.33-8.182-7.099-14.676-7.099c-9.145,0-15.639,8.06-15.639,17.563
		v0.24c0,9.862,6.377,17.804,16.359,17.804c6.133,0,10.344-2.646,14.795-6.855l10.707,10.825
		c-6.256,6.855-13.475,11.789-26.345,11.789C255.494,86.85,241.298,71.934,241.298,53.529z"/>
	<path fill="#78FF00" stroke="#FFFFFF" stroke-miterlimit="10" d="M305.895,4.449h18.282v25.623
		c4.213-5.412,9.625-10.347,18.887-10.347c13.836,0,21.893,9.144,21.893,23.938v41.739h-18.283V49.438
		c0-8.657-4.09-13.108-11.066-13.108s-11.428,4.451-11.428,13.108v35.968h-18.283L305.895,4.449L305.895,4.449z"/>
</g>
</svg>
