<?xml version="1.0" encoding="utf-8"?>
<!-- Generator: Adobe Illustrator 16.0.0, SVG Export Plug-In . SVG Version: 6.00 Build 0)  -->
<!DOCTYPE svg PUBLIC "-//W3C//DTD SVG 1.1//EN" "http://www.w3.org/Graphics/SVG/1.1/DTD/svg11.dtd">
<svg version="1.1" id="Layer_2" xmlns="http://www.w3.org/2000/svg" xmlns:xlink="http://www.w3.org/1999/xlink" x="0px" y="0px"
	 width="364.956px" height="86.85px" viewBox="0 0 364.956 86.85" enable-background="new 0 0 364.956 86.85" xml:space="preserve">
<g>
	<path fill="#38FFE5" d="M0,73.133l10.946-13.109c7.579,6.255,15.519,10.225,25.142,10.225c7.576,0,12.148-3.006,12.148-7.939v-0.24
		c0-4.688-2.885-7.098-16.961-10.707C14.316,47.034,3.37,42.34,3.37,25.621v-0.24C3.37,10.102,15.641,0,32.842,0
		c12.268,0,22.734,3.847,31.274,10.705L54.492,24.66c-7.459-5.174-14.796-8.301-21.893-8.301c-7.098,0-10.825,3.248-10.825,7.337
		v0.239c0,5.534,3.608,7.34,18.165,11.07c17.077,4.446,26.701,10.583,26.701,25.26v0.239c0,16.72-12.752,26.103-30.911,26.103
		C22.975,86.607,10.106,82.155,0,73.133z"/>
	<path fill="#38FFE5" d="M73.617,4.449h18.286v39.937l21.411-23.456h21.892l-24.538,25.381l25.381,39.094h-21.171l-16.48-26.463
		l-6.494,6.857v19.605H73.617V4.449z"/>
	<path fill="#38FFE5" d="M131.477,53.529v-0.242c0-18.402,13.112-33.561,31.877-33.561c21.532,0,31.396,16.719,31.396,35.006
		c0,1.441-0.121,3.127-0.242,4.809h-44.867c1.804,8.304,7.576,12.631,15.759,12.631c6.134,0,10.583-1.924,15.635-6.615l10.467,9.264
		c-6.015,7.456-14.677,12.029-26.344,12.029C145.792,86.85,131.477,73.254,131.477,53.529z M176.945,48.116
		c-1.082-8.183-5.894-13.713-13.592-13.713c-7.579,0-12.51,5.412-13.952,13.713H176.945z"/>
	<path fill="#38FFE5" d="M204.133,67.121V36.566h-7.701V20.93h7.701V4.449h18.28v16.48h15.158v15.637h-15.158v27.548
		c0,4.21,1.806,6.255,5.894,6.255c3.37,0,6.377-0.842,9.025-2.285v14.674c-3.852,2.285-8.304,3.73-14.438,3.73
		C211.709,86.488,204.133,82.037,204.133,67.121z"/>
	<path fill="#38FFE5" d="M241.299,53.529v-0.242c0-18.402,14.074-33.561,33.803-33.561c12.146,0,19.726,4.091,25.738,10.828
		l-11.184,12.027c-4.091-4.33-8.182-7.098-14.676-7.098c-9.144,0-15.638,8.059-15.638,17.563v0.24
		c0,9.863,6.376,17.804,16.358,17.804c6.134,0,10.344-2.646,14.795-6.855l10.707,10.825c-6.255,6.855-13.474,11.789-26.344,11.789
		C255.494,86.85,241.299,71.934,241.299,53.529z"/>
	<path fill="#38FFE5" d="M305.895,4.449h18.283v25.623c4.212-5.412,9.625-10.346,18.886-10.346c13.835,0,21.893,9.143,21.893,23.938
		v41.74h-18.283V49.438c0-8.658-4.091-13.109-11.067-13.109s-11.428,4.451-11.428,13.109v35.967h-18.283V4.449z"/>
</g>
</svg>
