<?xml version="1.0" encoding="utf-8"?>
<!-- Generator: Adobe Illustrator 16.0.0, SVG Export Plug-In . SVG Version: 6.00 Build 0)  -->
<!DOCTYPE svg PUBLIC "-//W3C//DTD SVG 1.1//EN" "http://www.w3.org/Graphics/SVG/1.1/DTD/svg11.dtd">
<svg version="1.1" id="Layer_3" xmlns="http://www.w3.org/2000/svg" xmlns:xlink="http://www.w3.org/1999/xlink" x="0px" y="0px"
	 width="149.535px" height="3.977px" viewBox="0 0 149.535 3.977" enable-background="new 0 0 149.535 3.977" xml:space="preserve">
<g>
	<g>
		<g>
			<path fill="#FFFFFF" d="M149.36,0.53c0.221,0.016,0.142-0.173,0.175-0.207C149.165,0.367,149.37,0.579,149.36,0.53z"/>
			<polygon fill="#FFFFFF" points="145.716,0.982 145.78,0.905 145.244,1.097 			"/>
			<path fill="#FFFFFF" d="M142.308,1.002c0.323,0.319,1.235-0.061,1.842,0.05l0.102,0.073l0.273-0.261
				C143.786,0.91,142.828,1.088,142.308,1.002z"/>
			<path fill="#FFFFFF" d="M140.49,0.319c0.112,0.125-0.393,0.11,0.424,0.036c-0.041-0.013-0.053-0.021-0.077-0.032
				C140.764,0.327,140.663,0.327,140.49,0.319z"/>
			<path fill="#FFFFFF" d="M140.837,0.324C141.196,0.313,140.602,0.221,140.837,0.324L140.837,0.324z"/>
			<path fill="#FFFFFF" d="M139.18,0.407l0.473-0.114c-0.099-0.073-0.52-0.087-0.363-0.142
				C138.805,0.215,138.904,0.288,139.18,0.407z"/>
			<path fill="#FFFFFF" d="M138.731,0.644l0.245-0.049C138.934,0.564,138.869,0.554,138.731,0.644z"/>
			<path fill="#FFFFFF" d="M139.497,0.492l-0.521,0.103c0.069,0.051,0.076,0.156,0.239-0.037
				C139.173,0.654,139.275,0.562,139.497,0.492z"/>
			<path fill="#FFFFFF" d="M139.791,0.539c0.265,0.068,0.607,0.109,0.133,0.224C140.829,0.713,140.694,0.489,139.791,0.539z"/>
			<path fill="#FFFFFF" d="M142.134,1.335l0.354,0.092l0.307-0.109C142.643,1.371,142.111,1.235,142.134,1.335z"/>
			<path fill="#FFFFFF" d="M136.234,0.26c-0.029,0.069,0.159,0.181,0.194,0.269l0.35-0.081
				C136.599,0.402,136.259,0.361,136.234,0.26z"/>
			<path fill="#FFFFFF" d="M136.429,0.529l-0.522,0.121C136.373,0.66,136.458,0.604,136.429,0.529z"/>
			<polygon fill="#FFFFFF" points="138.648,1.001 139.506,0.749 138.482,1.006 			"/>
			<polygon fill="#FFFFFF" points="134.239,0.265 134.535,0.105 134.008,0.348 			"/>
			<path fill="#FFFFFF" d="M132.915,0.302c0.219-0.132-0.301-0.22-0.068-0.302c-0.36,0.025-0.667,0.14-0.943,0.244
				C132.197,0.185,132.51,0.197,132.915,0.302z"/>
			<path fill="#FFFFFF" d="M131.439,0.394c0.146-0.032,0.299-0.089,0.464-0.15C131.748,0.274,131.594,0.319,131.439,0.394z"/>
			<path fill="#FFFFFF" d="M135.017,0.622c-0.04-0.042-0.118-0.149-0.411-0.192l0.205,0.191
				C134.874,0.621,134.945,0.621,135.017,0.622z"/>
			<path fill="#FFFFFF" d="M134.818,0.626l-0.008-0.005c-0.223-0.004-0.377-0.007-0.443-0.008
				C134.424,0.614,134.56,0.618,134.818,0.626z"/>
			<path fill="#FFFFFF" d="M135.068,0.622c-0.02,0-0.032,0-0.052,0C135.036,0.641,135.049,0.646,135.068,0.622z"/>
			<path fill="#FFFFFF" d="M137.278,0.837c-0.308,0.11-0.947,0.229-0.328,0.389C137.171,1.092,136.816,1.001,137.278,0.837z"/>
			<path fill="#FFFFFF" d="M135.324,0.861l0.555,0.04c-0.012-0.05-0.111-0.124,0.04-0.179L135.324,0.861z"/>
			<polygon fill="#FFFFFF" points="135.052,0.923 135.324,0.861 135.118,0.846 			"/>
			<path fill="#FFFFFF" d="M132.391,0.567c-0.24,0.085-0.502,0.094-0.798,0.11c0.316,0.035,0.646,0.054,0.957,0.051
				C132.594,0.668,132.73,0.558,132.391,0.567z"/>
			<path fill="#FFFFFF" d="M133.57,0.613l-0.054,0.011C133.55,0.64,133.575,0.646,133.57,0.613z"/>
			<polygon fill="#FFFFFF" points="128.676,0.695 128.723,0.73 128.734,0.696 			"/>
			<path fill="#FFFFFF" d="M132.603,0.764c0.239,0.035,0.382-0.012,0.518-0.073c-0.179,0.02-0.367,0.035-0.57,0.037
				C132.53,0.755,132.526,0.773,132.603,0.764z"/>
			<path fill="#FFFFFF" d="M130.626,0.489c0.124,0.04,0.265,0.073,0.413,0.103C130.918,0.532,130.67,0.439,130.626,0.489z"/>
			<path fill="#FFFFFF" d="M133.437,0.572l0.035-0.009C133.394,0.522,133.404,0.542,133.437,0.572z"/>
			<path fill="#FFFFFF" d="M133.437,0.572c-0.123,0.028-0.22,0.076-0.316,0.119c0.146-0.016,0.279-0.038,0.396-0.067
				C133.487,0.611,133.457,0.589,133.437,0.572z"/>
			<path fill="#FFFFFF" d="M127.795,1.936c0.041-0.179,0.668-0.348,1.21-0.161c0.532-0.137,0.184-0.721-0.282-1.045
				c-0.016,0.078-0.016,0.149-0.564,0.258c0.192,0.096,1.217,0.22,0.755,0.384c-0.727,0.096-0.596-0.06-0.948-0.151
				c0.301,0.219-0.925,0.329-0.766,0.654l0.637-0.119C127.848,1.808,127.617,1.89,127.795,1.936z"/>
			<path fill="#FFFFFF" d="M129.768,0.741l0.227-0.024c-0.258-0.03-0.442-0.1-0.782-0.236c-0.374,0.09-0.452,0.156-0.478,0.215
				l1.11,0.018L129.768,0.741z"/>
			<path fill="#FFFFFF" d="M131.007,0.71c-0.176,0.194-0.718,0.281-0.386,0.489c0.662-0.018,0.464-0.166,0.859-0.252
				c-1.068,0.056,0.307-0.11-0.465-0.215c0.209-0.034,0.398-0.046,0.577-0.055c-0.192-0.022-0.378-0.051-0.554-0.085l0.025,0.012
				l0.005-0.001l-0.002,0.002c0.046,0.025,0.063,0.04,0.01,0.026c-0.004,0.002-0.017,0.003-0.022,0.004
				c-0.007,0.027-0.026,0.051-0.048,0.073c-0.31-0.037-0.049-0.05,0.048-0.073c0.004-0.01,0.012-0.019,0.013-0.03l-0.003-0.001
				l-1.07,0.113C130.221,0.743,130.504,0.735,131.007,0.71z"/>
			<path fill="#FFFFFF" d="M136.38,1.646c-0.033-0.017-0.031-0.031-0.034-0.045C136.276,1.626,136.25,1.642,136.38,1.646z"/>
			<path fill="#FFFFFF" d="M135.939,1.532c0.078-0.027,0.143-0.105,0.396-0.087c0.22,0.056-0.001,0.093,0.011,0.156
				c0.152-0.052,0.533-0.143,0.056-0.233l-0.076,0.026c-0.432-0.064-0.985-0.301-0.91-0.329
				C135.541,1.24,135.652,1.363,135.939,1.532z"/>
			<path fill="#FFFFFF" d="M133.442,1.171l-0.892,0.101l0.455,0.165l-0.024-0.101C133.489,1.372,133.38,1.249,133.442,1.171z"/>
			<polygon fill="#FFFFFF" points="128.574,0.6 128.691,0.394 128.178,0.687 			"/>
			<polygon fill="#FFFFFF" points="127.415,0.632 127.458,0.453 127.152,0.563 			"/>
			<path fill="#FFFFFF" d="M62.052,3.278L61.79,3.331C61.914,3.314,61.993,3.296,62.052,3.278z"/>
			<path fill="#FFFFFF" d="M63.948,3.278l0.046-0.089C63.906,3.238,63.87,3.274,63.948,3.278z"/>
			<path fill="#FFFFFF" d="M98.963,0.842c-0.382-0.164-0.809-0.419-0.762-0.219l0.117,0.194C98.585,0.781,98.789,0.801,98.963,0.842
				z"/>
			<path fill="#FFFFFF" d="M79.482,2.138l0.111,0.059c0.093-0.068,0.178-0.13,0.257-0.188C79.737,2.048,79.613,2.091,79.482,2.138z"
				/>
			<path fill="#FFFFFF" d="M79.216,2.947l-0.503-0.122C78.826,2.868,78.988,2.909,79.216,2.947z"/>
			<path fill="#FFFFFF" d="M51.695,3.555l-0.305,0.2C51.869,3.751,51.658,3.652,51.695,3.555z"/>
			<path fill="#FFFFFF" d="M115.55,0.783c-0.329-0.074-0.591-0.104-0.821-0.112C115.125,0.78,115.445,0.946,115.55,0.783z"/>
			<path fill="#FFFFFF" d="M62.788,1.201c-0.161,0.037-0.229,0.077-0.224,0.12C62.729,1.287,62.822,1.249,62.788,1.201z"/>
			<path fill="#FFFFFF" d="M113.777,0.678c0.063,0.016,0.114,0.029,0.174,0.044c0.241-0.035,0.482-0.062,0.777-0.051
				C114.436,0.589,114.1,0.54,113.777,0.678z"/>
			<path fill="#FFFFFF" d="M14.134,3.645c-0.027-0.009-0.06-0.013-0.085-0.023C14.041,3.647,14.078,3.648,14.134,3.645z"/>
			<path fill="#FFFFFF" d="M3.182,1.747c0.107-0.013,0.283-0.015,0.449-0.018C3.55,1.716,3.414,1.719,3.182,1.747z"/>
			<path fill="#FFFFFF" d="M122.754,0.578C123,0.563,122.793,0.555,122.754,0.578L122.754,0.578z"/>
			<path fill="#FFFFFF" d="M123.95,1.342c-0.052,0.022-0.092,0.051-0.099,0.095C123.872,1.39,123.906,1.36,123.95,1.342z"/>
			<path fill="#FFFFFF" d="M111.333,1.909l-0.021-0.001C111.385,1.946,111.373,1.938,111.333,1.909z"/>
			<path fill="#FFFFFF" d="M123.124,0.664c-0.092-0.023-0.199-0.042-0.314-0.055C122.86,0.623,122.955,0.641,123.124,0.664z"/>
			<path fill="#FFFFFF" d="M123.073,0.572c0.086,0.007,0.151,0.012,0.215,0.018C123.32,0.557,123.293,0.537,123.073,0.572z"/>
			<path fill="#FFFFFF" d="M122.412,0.59c0.14-0.003,0.271,0.005,0.397,0.019c-0.049-0.013-0.069-0.024-0.056-0.031
				C122.682,0.58,122.58,0.584,122.412,0.59z"/>
			<path fill="#FFFFFF" d="M34.256,2.987c-0.016-0.006-0.031-0.011-0.052-0.019C33.957,3.052,34.064,3.038,34.256,2.987z"/>
			<polygon fill="#FFFFFF" points="92.575,2.912 92.604,2.902 92.567,2.896 			"/>
			<path fill="#FFFFFF" d="M91.693,3.063c0.375-0.245,0.589-0.217,0.874-0.167l-0.295-0.562L91.693,3.063z"/>
			<path fill="#FFFFFF" d="M58.243,3.324c-0.814-0.253-1.578,0.077-2.019,0.239c-0.311-0.086,0.243-0.46-0.643-0.354
				c-1.25,0.128,0.239,0.445-0.511,0.521l-0.546-0.313c-0.958,0.248-1.676,0.036-2.484,0.002c-0.183,0.026-0.272,0.06-0.317,0.095
				c-0.861-0.132-1.802,0.32-2.452,0.222c0.151-0.066-0.372-0.197-0.45-0.272L47.65,3.668c0.519-0.087,0.495-0.269,0.589-0.445
				c-0.365,0.021-0.538,0.122-0.787,0.146c0.152-0.064,0.306-0.132,0.111-0.211l-1.228,0.309c0.072,0.03,0.215,0.041,0.333,0.049
				c-0.308,0.003-0.972,0.123-1.411-0.022c0.038-0.07,0.188-0.137,0.226-0.209c0.37,0.198,0.579,0.026,0.77-0.11
				c-0.847,0.036-0.212-0.045-0.62-0.171c-0.599,0.011-0.842,0.253-0.685,0.404c-0.676-0.064-0.891-0.11-1.579,0.077l0.129-0.248
				l-0.633,0.082l0.512-0.304c-1.217-0.16-0.222,0.425-1.572,0.295l-0.004-0.217c-0.521,0.086-0.696,0.454-1.102,0.197
				c-0.503,0.135,0.864,0.301-0.32,0.353c-0.209-0.11-0.659-0.189-1-0.231c-0.378,0.102,0.289,0.256,0.531,0.225
				C38.122,3.749,38.797,2.9,37.2,3.196c0.549,0.151-0.454,0.422,0.841,0.407c-0.618,0.133-1.219-0.306-1.862-0.065l0.418-0.28
				c-0.231-0.003-0.492,0.1-0.618,0.134l0.052-0.214c-0.796,0.38-1.483-0.167-1.954,0.326c0.327-0.388-0.594,0.026-0.912-0.122
				c0.654-0.276,1.88-0.005,1.966-0.362c-0.306-0.106-0.577,0.07-0.874-0.033c0.206-0.054,0.506-0.15,0.584-0.223
				c-1.009-0.196-1.58,0.226-2.191,0.323l1.079-0.09c-0.086,0.357-0.486,0.064-0.788,0.346c-0.54-0.188-0.961,0.092-1.402-0.023
				c0.117,0.002,0.125-0.033,0.241-0.032c-1.176,0.017-1.506-0.562-1.974-0.569c-0.46-0.043-1.328,0.157-1.013,0.306
				c-0.377,0.102,1.562-0.117,0.892,0.349c-0.675-0.529-1.38,0.21-2.846-0.146c0.641-0.194-0.378-0.298,0.192-0.445
				c-0.696,0.047-0.722,0.127-1.032,0.28l-0.211-0.166c-0.909,0.38-0.212,0.333-1.591,0.541c0.462-0.134-0.555-0.237-0.203-0.357
				c-0.382-0.009-0.755,0.044-1.034,0.146l0.051-0.023C21.613,3.299,21.864,3,20.594,3.194l0.127,0.101
				c-1.664,0.282-3.771,0.121-5.496,0.258l0.608,0.077c-0.185-0.05-1.162,0.167-1.699,0.015c0.107-0.011,0.292-0.057,0.394-0.044
				c-0.016-0.113-0.226-0.279-0.641-0.305l-0.159,0.173L13.56,3.337c-0.632,0.001,0.187,0.245-0.445,0.247
				c-0.37-0.491-2.721-0.048-3.268-0.477c-0.428,0.359,1.196,0.042,0.727,0.37c-0.193-0.053-0.28-0.119-0.69-0.145l0.143,0.212
				C8.113,3.436,7.383,3.259,5.682,3.314L5.75,3.269C5.144,3.19,4.817,3.23,4.547,3.417C4.421,3.318,4.857,3.264,4.621,3.178
				C3.557,3.731,2.486,2.791,1.838,3.177c0.083-0.431-1.313-0.832-0.733-1.173L0.667,2.059C0.81,1.773,2.039,2.042,2.289,1.743
				l1.382,0.289c-0.045-0.107,0.182-0.267-0.04-0.303c0.34-0.008,0.639-0.025,0.191-0.176c3.299,0.703,6.683-0.021,9.931,0.343
				c0.219-0.027,0.092-0.125,0.008-0.192c0.599,0.271,0.571-0.147,0.898-0.188l0.876,0.391c0.354-0.121,0.077-0.24,0.103-0.319
				c1.655-0.09,3.271,0.285,4.611,0.042c0.427,0.139-0.101,0.319,0.463,0.364c-0.768-0.404,1.64-0.203,1.151-0.487
				c0.548,0.431,2.028,0.079,1.785,0.684c0.674,0.031,0.557-0.26,0.362-0.313c0.782,0.018,1.414,0.017,2.053-0.177
				c0.43,0.138,3.575-0.175,4.276,0.274c-0.478-0.291,0.035-0.152,0.491-0.284l-0.413-0.257l1.031,0.021
				c0.209-0.026,0.269-0.016,0.268,0.008c0.176,0.011-0.04,0.15,0.404,0.213c0.701,0.011,0.734-0.131,1.12-0.269L33.134,1.37
				l0.476-0.028c0.351,0.006-1.238,0.267-0.094,0.393c0.017-0.072,0.687-0.419,0.994-0.234c-0.584-0.01-0.509,0.171-0.294,0.246
				l0.818,0.014l-0.272-0.328c2.346,0.002,4.788,0.22,7.293,0.183c-0.033,0.289,1.772,0.003,1.548,0.428l-0.096-0.04
				c-0.615,0.045,0.18,0.333,0.681,0.282c-0.525-0.131,0.937-0.43-0.336-0.485l0.981-0.207c0.542-0.815,2.625,0.051,4.114-0.221
				c-0.105,0.032-0.133,0.076-0.146,0.101c1.324-0.269,2.973,0.2,3.278,0.068l0.119,0.222c1.131-0.35,1.265-0.38,2.617-0.25
				c-0.019,0.036-0.174,0.101,0.04,0.146c0.325-0.167,0.65-0.334,1.575-0.294l-0.037,0.071l1.445-0.047
				c-0.007,0.688,2.477-0.437,2.914,0.306c0.283-0.203,1.341-0.273,1.811-0.372c0.002,0.03,0.033,0.06,0.111,0.092
				c0.554-0.375,1.604,0.104,2.219,0.059c0.401-0.092,0.227-0.208,0.052-0.324c0.794,0.287,2.188-0.341,2.479-0.219
				c0.581,0.024,0.218,0.262,0.379,0.413c0.862-0.071-0.148-0.622,1.012-0.355c-0.134,0.031-0.384,0.057-0.287,0.097
				c0.444,0.054,1.239,0.84,1.68,0.678l-0.292-0.121c0.807-0.183,1.913,0.547,2.04,0.083L71.88,1.508
				c1.392,0.277,0.589-0.088,2,0.153l-0.017,0.036c0.615-0.046,0.948,0.221,1.249-0.127L74.9,1.523
				c0.762-0.033,0.83-0.007,1.608,0.005c0.091-0.034,0.466-0.088,0.574-0.017c0.034-0.287,1.804-0.145,2.149-0.129
				c-0.615,0.046-0.322,0.167-0.147,0.283c0.362-0.238,0.612-0.263,1.115-0.097c0.07-0.359,0.168-0.742,1.159-0.77
				c-0.153,0.055-0.395,0.087-0.295,0.16c0.102,0.073,0.331-0.009,0.408-0.037c0.1,0.073-0.219,0.133-0.106,0.256
				c0.667-0.347,1.155-0.032,2.125-0.16c-0.308,0.11-0.042,0.178,0.069,0.302c0.073-0.407,1.328,0.343,0.957-0.179
				c1.901,0.303,4.823-0.008,5.564,0.326c0.2,0.146,0.729-0.097,1.059-0.106L91.097,1.54c0.924-0.33,0.72-0.125,1.807-0.458
				c-0.45,0.215-0.262,0.311,0.194,0.477l0.745-0.375l0.146,0.274c0.307-0.109,0.648-0.068,0.99-0.027
				c-0.165,0.004-0.074,0.027-0.064,0.077c0.162-0.383,1.499-0.348,1.706-0.531c0.335,0.37,0.895-0.101,1.14,0.247
				c0.109-0.053,0.251-0.097,0.405-0.133c-0.16-0.162-0.22-0.344,0.082-0.266c0.026-0.003,0.045-0.004,0.07-0.007l0.132,0.216
				c0.307-0.053,0.619-0.08,0.825-0.085c-0.093-0.018-0.2-0.058-0.313-0.106c0.126,0.036,0.253,0.071,0.372,0.105
				c0.042,0,0.082,0.001,0.11,0.001c-0.02,0.006-0.042,0.011-0.066,0.011c0.188,0.049,0.381,0.073,0.649-0.002
				c1.075,0.326,2.388-0.471,3.574-0.022c-0.179-0.046-0.43-0.065-0.497,0.013c0.991-0.027,1.977,0.275,2.604,0.105l-0.045-0.202
				c0.728-0.097,1.288-0.165,1.874-0.156l0.031-0.229c0.853,0.078,2.678-0.302,3.2,0.165c0.208-0.184,1.178,0.045,1.662-0.018
				l0.123,0.174c0.631,0.053,1.021-0.012,1.396-0.065c1.281,0.356,2.466-0.012,3.585,0.007l0.011,0.05l1.135-0.133
				c-0.297,0.16,0.224-0.111,0.564-0.069c0.36-0.087,0.947-0.046,1.373,0.064l0.724,0.004c-0.804,0.124,0.058,0.251,0.104,0.453
				l0.462-0.165c0.186,0.096-0.298,0.16,0.044,0.202c0.31-0.11,1.223-0.11,1.508-0.321c-0.044-0.05-0.155-0.097-0.292-0.136
				c-0.039,0.013-0.037,0.009-0.012-0.004l-0.032-0.011c0.015,0.002,0.021,0.003,0.039,0.006c0.039-0.02,0.1-0.054,0.125-0.081
				c0.575,0.041,0.365-0.041,0.344-0.131c0.654,0.311,1.019,0.095,1.519,0.462c-0.679-0.412,1.496-0.013,1.074-0.407
				c0.486,0.315,0.333,0.014,0.645,0.283c-0.685-0.082-1.366,0.215-1.916,0.357l0.542,0.187c-0.353,0.364-1.217-0.125-1.539-0.001
				c0.217-0.085,0.706-0.004,0.724,0.076l-0.146-0.275c-0.773-0.105-1.389,0.114-1.937,0.255c0.518,0.087-0.628,0.17-0.253,0.363
				l0.41-0.037c0.188,0.096-0.208,0.183-0.438,0.265c-1.294-0.192-3.663,0-4.126-0.215c0.264,0.068,0.75,0.004,0.98-0.078
				l-0.607-0.11c0.493-0.014,0.883,0.229,1.61,0.132c-0.123-0.173,0.404-0.416-0.149-0.654c-1.393-0.264-1.143,0.462-2.819,0.408
				c-0.155,0.055,0.351-0.288-0.543-0.188c-1.123,0.184-1.944,0.586-1.941,0.966c0.473-0.114,1.417-0.343,1.563-0.069
				c-0.472,0.115-1.287,0.188-1.329,0.366c-0.489-0.315,0.892-0.101,0.25-0.362c-0.331,0.01-0.474,0.115-0.628,0.17
				c0.221-0.133-0.298-0.22-0.396-0.294c-1.075,0.004-1.694-0.13-2.847-0.15c-0.062-0.046-0.188-0.147-0.155-0.225
				c-0.563,0.091-1.364,0.573-1.154,0.77c-0.66,0.019-0.695-0.133-1.257-0.042c0.897,0.28-0.176-0.046-0.271,0.262
				c-0.574,0.041-0.201-0.147-0.466-0.216c-0.096,0.034-0.324,0.137-0.339,0.22c-0.354-0.23,0.683-0.611,0.267-0.879
				c-0.288-0.168-1.522-0.467-1.61-0.49c-0.273,0.261-0.19,1.328,0.222,1.671c-0.044,0.179-0.545-0.188-0.796-0.206
				c-0.731-0.285-1.113,0.233-1.72,0.124l0.461-0.165c-0.101-0.073-0.993,0.027-1.135,0.132c-0.023-0.101,0.461-0.522,0.183-0.641
				c-1.09-0.045-2.123,0.518-2.054,0.819l1.671-0.325c0.059,0.252-1.187,0.261-1.117,0.563l-1.54-0.079
				c0.195-0.01,0.789-0.085,0.555-0.223c-0.661,0.018-0.343-0.042-0.784-0.156c0.757-0.324,2.143-1.154,2.636-1.547l-0.794,0.174
				l-0.199-0.147c-1.034,0.207-1.967,1.2-2.238,1.461c-0.596-0.06-0.39-0.6-0.248-0.706c-1.17-0.018-1.153,0.771-2.333,0.701
				l0.443,0.114c-0.278,0.052-1.29-0.05-1.182,0.049c-0.234-0.142-0.45-0.478-0.189-0.57l-1.043,0.513
				c0.153-0.055,0.051-0.486,0.116-0.563c-0.42-0.014-0.714,0.504-0.447,0.572c-0.82-0.307-0.616-0.138-1.282-0.499
				c-0.242,0.032,0.023,0.458,0.2,0.504C93.185,3,92.863,2.947,92.604,2.902c0.903-0.191,0.243-0.97,0.413-1.3l-1.942,1.301
				c0.066-0.078,0.218-0.49,0.207-0.54c-0.161,0.384-2.391,0.449-3.482,0.403l0.164-0.005c0.221-0.133-0.719-0.233-1.103-0.096
				c0.064-0.077,0.154-0.055,0.318-0.06c-0.73-0.284-0.943,0.587-1.688,0.252c0.673,0.032,0.805-0.124,0.77-0.274
				c-0.551,0.141-1.83,0-1.561,0.449C84.346,2.94,84.027,3,84.058,2.771l-1.354,0.277c0.101-0.046,0.188-0.181-0.21-0.208
				c0.761,0.055,1.494-0.371,1.896-0.078c0.018-0.278-0.268-0.426,0.095-0.664c-1.467,0.143-2.268,0.624-3.191,0.953l-1.292-0.192
				l-0.054,0.128l-0.226-0.32c-0.161,0.075-0.264,0.139-0.298,0.109c-0.03-0.028,0.011-0.072,0.075-0.119
				c-0.137,0.017-0.261,0.046-0.324,0.08c-0.051-0.168,0.176-0.363,0.419-0.54c0.119,0.059,0.24,0.118,0.356,0.175
				c0.253-0.162,0.435-0.33,0.081-0.434c-0.053,0.021-0.115,0.045-0.181,0.07c0.161-0.121,0.261-0.221,0.142-0.268l-0.987,0.161
				c0.112,0.043,0.28,0.134,0.478,0.236c-0.618,0.214-1.323,0.475-0.77,0.688l-0.754-0.184c-0.881,0.324-0.728,0.258-1.802,0.502
				c-0.06-0.111,0.226-0.208,0.032-0.289c-0.782,0.365-1.915-0.408-2.085-0.089c-0.632,0.082-0.263,0.279-0.664,0.37
				c0.019-0.036,0.056-0.106-0.062-0.111l-0.477,0.233c-0.193-0.08,0.439-0.162-0.101-0.258c-0.921,0.179-1.462,0.3-2.232,0.195
				c-1.097,0.062,0.472,0.454-0.455,0.415c-0.138-0.188-0.258-0.409-0.838-0.435c-0.305,0.132-0.262,0.278-0.781,0.365l0.031-0.288
				c-0.48,0.016-0.863,0.071-0.868-0.146c-0.393,0.125-0.663,0.105-0.869,0.061c-0.728,0.158,0.539,0.581,0.709,0.693
				c-0.717-0.212-1.211-0.083-1.621-0.427l0.633-0.082c-1.354-0.347-1.28,0.416-1.91-0.19c0.464,0.02,1.02-0.138,0.744-0.294
				l-0.67,0.152c-0.08-0.075,0.383-0.055,0.075-0.141c-0.19,0.064-0.582,0.214-0.755,0.312l0.009-0.018l-1.212,0.057
				c0.23,0.011,0.286-0.097,0.055-0.107l-0.794,0.157c0.243-0.074-0.007-0.161-0.364-0.206c-1.023-0.08-0.815,0.653-1.611,0.366
				c0.116,0.005,0.135-0.031,0.251-0.026l-0.409-0.125c-0.083,0.611-2.407,0.078-2.491,0.689c-0.583-0.242-0.042-0.146,0.704-0.44
				l-0.62-0.171C57.763,3.34,57.974,3.385,58.243,3.324z M66.104,3.226c0.132,0.127,0.489-0.016,0.668-0.063
				C66.466,3.093,66.307,2.975,66.104,3.226z M80.274,2.504c0.232,0.081,0.439,0.115,0.573,0.042
				C80.635,2.492,80.443,2.485,80.274,2.504z M120.042,0.783l0.02-0.011C119.783,0.733,119.642,0.701,120.042,0.783z M120.479,0.816
				c0.212,0.014,0.398,0.009,0.456-0.046c0.036,0.03,0.042,0.06-0.042,0.091C120.645,0.911,120.537,0.873,120.479,0.816z
				 M31.788,1.6l-0.163-0.056C31.524,1.606,31.422,1.664,31.788,1.6z"/>
			<path fill="#FFFFFF" d="M79.252,2.854c-0.051-0.037-0.064-0.077-0.077-0.117C79.104,2.773,79.104,2.815,79.252,2.854z"/>
			<path fill="#FFFFFF" d="M51.752,3.518l-0.028-0.002c-0.015,0.013-0.023,0.025-0.028,0.039L51.752,3.518z"/>
			<path fill="#FFFFFF" d="M108.021,2.788c-0.171-0.03-0.267-0.069-0.33-0.11C107.681,2.731,107.759,2.775,108.021,2.788z"/>
			<path fill="#FFFFFF" d="M125.297,0.462l-0.532,0.06c0.258-0.012,0.35,0.034,0.479,0.068C125.232,0.54,125.13,0.467,125.297,0.462
				z"/>
			<path fill="#FFFFFF" d="M129.92,1.775c0.078-0.027,0.166-0.004,0.242-0.031l-0.021-0.101
				C129.81,1.651,129.578,1.735,129.92,1.775z"/>
			<path fill="#FFFFFF" d="M125.791,1.18c0.043,0.183,0.377,0.119,0.749,0.082l-0.065,0C126.584,1.007,126.187,1.094,125.791,1.18z"
				/>
			<path fill="#FFFFFF" d="M126.627,1.255c0.114-0.009,0.232-0.015,0.345-0.006C127.016,1.146,126.832,1.228,126.627,1.255z"/>
			<path fill="#FFFFFF" d="M121.946,0.733c0.178,0.046,0.111-0.234,0.211-0.161C122.354,0.338,120.979,0.861,121.946,0.733z"/>
			<polygon fill="#FFFFFF" points="126.094,1.779 125.96,1.555 125.751,1.739 			"/>
			<path fill="#FFFFFF" d="M123.148,1.634l0.597,0.059c-0.01-0.038,0.066-0.06,0.159-0.078
				C123.537,1.61,123.135,1.567,123.148,1.634z"/>
			<path fill="#FFFFFF" d="M123.904,1.615c0.191,0.003,0.373-0.003,0.479-0.041C124.28,1.578,124.059,1.586,123.904,1.615z"/>
			<polygon fill="#FFFFFF" points="125.279,1.853 125.104,1.808 124.682,1.794 			"/>
			<path fill="#FFFFFF" d="M116.742,1.634l-0.649,0.068c-0.066,0.078,0.111,0.125,0.353,0.092
				C116.602,1.739,116.842,1.708,116.742,1.634z"/>
			<path fill="#FFFFFF" d="M118.711,2.238c-0.177-0.045-0.188-0.096-0.287-0.169l-0.02,0.279L118.711,2.238z"/>
			<path fill="#FFFFFF" d="M116.813,2.316c-0.064,0.078-0.942,0.229-0.118,0.206C116.761,2.444,117.412,2.376,116.813,2.316z"/>
			<polygon fill="#FFFFFF" points="107.013,2.027 107.179,2.023 107.153,1.565 			"/>
			<path fill="#FFFFFF" d="M98.379,3.183c0.771,0.104,0.183-0.285,0.879-0.152c0.181-0.109-0.569-0.108-0.384-0.203
				C98.409,2.945,98.164,2.882,98.379,3.183z"/>
			<path fill="#FFFFFF" d="M98.874,2.828c0.074-0.019,0.152-0.041,0.236-0.071C98.977,2.786,98.913,2.808,98.874,2.828z"/>
			<polygon fill="#FFFFFF" points="1.364,1.513 0.868,1.421 1.188,1.572 			"/>
			<path fill="#FFFFFF" d="M0.415,1.86L0.297,1.568L0,1.834C0.111,1.82,0.329,1.794,0.415,1.86z"/>
			<path fill="#FFFFFF" d="M68.151,3.742l0.037-0.071c-0.077-0.075-0.192-0.08-0.426-0.091L68.151,3.742z"/>
			<polygon fill="#FFFFFF" points="61.429,3.568 61.545,3.573 61.327,3.311 			"/>
			<path fill="#FFFFFF" d="M55.788,3.943c0.23,0.01,0.502-0.052,0.732-0.042C56.019,3.953,55.725,3.614,55.788,3.943z"/>
		</g>
	</g>
</g>
</svg>
