<?xml version="1.0" encoding="utf-8"?>
<!-- Generator: Adobe Illustrator 16.0.0, SVG Export Plug-In . SVG Version: 6.00 Build 0)  -->
<!DOCTYPE svg PUBLIC "-//W3C//DTD SVG 1.1//EN" "http://www.w3.org/Graphics/SVG/1.1/DTD/svg11.dtd">
<svg version="1.1" id="Layer_1" xmlns="http://www.w3.org/2000/svg" xmlns:xlink="http://www.w3.org/1999/xlink" x="0px" y="0px"
	 width="25.629px" height="135.684px" viewBox="0 0 25.629 135.684" enable-background="new 0 0 25.629 135.684"
	 xml:space="preserve">
<g>
	<path fill="#FFFFFF" d="M10.5,129.197l0.068-0.461c0.373,0.782,1.597-0.307,2.307,0.043c-0.455-0.879,1.598-1.411,0.951-2.797
		c0.229-0.189,0.186,0.277,0.4,0.206c-0.242-0.375-0.209-0.723,0.125-1.289l0.061,0.094c0.415-1.743,0.964-2.387,1.688-4.278
		l-0.42,0.044c0.161-0.403,0.305-0.46,0.452-0.632c-0.454-0.629-0.343,1.165-0.866,0.561c0.937-0.349,0.767-2.938,1.74-3.097
		c0.163-0.646-0.49,0.081-0.329-0.563l0.283-0.113l-0.271-0.235c0.156-0.411,0.506-0.555,0.713-0.521
		c-0.047,0.098-0.01,0.307-0.021,0.42c0.414-0.483,0.259-1.575,0.396-1.742l-0.289,0.589c0.188-1.814,0.966-3.91,0.83-5.723
		l-0.211,0.093c-0.067-1.371,0.41-1.006,0.537-2.473l0.031,0.061c-0.125-0.322-0.143-0.723-0.045-1.111
		c0.145,0.403,0.549-0.604,0.693-0.084c-0.088-1.486-0.153-0.756-0.664-1.817l0.344-0.16c-0.218-0.371-0.359-0.424-0.309-1.153
		c0.156,0.634,0.545-0.377,0.772,0.345c0.938-1.396-0.271-2.354,0.812-2.886c-0.73-0.834-0.678,1.23-0.799,0.813
		c-0.33,0.276-0.535-0.68-0.375-1.139c0.096-0.479,1.213-0.643,1.396-1.861c-0.024,0.12,0.04,0.139,0.017,0.259
		c0.289-0.422-0.147-0.938,0.293-1.44c-0.463-0.392,0.138-0.723-0.502-0.912l-0.02,1.141c-0.064-0.659-0.753-1.367-0.227-2.353
		c0.119,0.102,0.248,0.437,0.313,0.663c0.236-0.276-0.042-0.605,0.202-0.894c0.644,0.187-0.058,1.378,0.344,2.133
		c0.323-0.287-0.284-1.356,0.372-0.909c-0.827-0.624,0.29-1.186-0.277-2.111l0.385,0.11c-0.043-0.14-0.188-0.436-0.145-0.675
		l0.445,0.506c-0.338-0.729,0.572-1.237,0.415-1.914c-0.165,1.349-0.511,0.238-0.876,0.768c-0.305-1.728,1.152-0.814,1.208-2.701
		c0.021,0.259-0.359,0.915-0.49,0.498c0.127-0.346,0.338-0.793,0.571-0.983c0.078-1.244-0.428,0.139-0.602-0.417
		c0.533-0.359-0.115-0.629-0.199-1.187l0.399,0.046c0.42-1.376-0.79-0.474-0.335-1.699l0.492,0.599l-0.068-0.677l0.439,0.188
		c-0.256-0.756-0.143-0.97,0.064-1.658c-0.3,0.133-0.716-0.172-0.658-0.794c0.285-0.398,0.354,0.276,0.396-0.61
		c0.229,0.226,0.519,0.479,0.104,0.822c0.127,0.054,0.229,0.224,0.354,0.277c0.324-0.428,0.192-1.145,0.226-1.465
		c-0.027,0.122-0.066,0.269-0.133,0.337l-0.427-1.338c0.17-0.188,0.274-0.016,0.378,0.155c-0.02-0.264-0.186-0.462-0.184-0.848
		c0.316,0.132,0.654,0.141,0.757,0.697l-0.244-1.26c0.149-0.067,0.448-0.59,0.556-0.42c0.254-0.663-0.47-1.722-0.138-2.599
		c-0.062-0.054-0.112-0.151-0.146-0.349c0.141-0.838,0.602-1.557,0.231-2.594l0.63-0.525c-0.07-0.796-0.797,0.716-0.915-0.607
		c-0.114-0.938,0.526-0.311,0.716-0.622c-0.258-0.483-0.817-1.322-0.285-2.143c0.094,0.289-0.008,0.505,0.021,0.771l0.364-0.628
		c0.485,0.817,0.267,1.374,0.761,0.794c-1.125-0.165,0.038-2.537-1.087-2.692l0.265-0.414c-0.02,0.121,0.047,0.146,0.028,0.267
		c0.592-0.803-0.778-0.663-0.556-1.725c0.103-0.368,0.277-0.62,0.4-0.359l-0.246-0.846c0.033-0.241,0.229-0.173,0.197,0.066
		l-0.037-1.272l0.031,0.012c-0.17-0.189-0.426-0.61-0.533-0.814c0.176-0.314,0.113,0.166,0.258,0.089l-0.246-0.712
		c0.308-0.273,0.567,0.317,0.504,0.803c1.158-0.612-0.26-0.595,0.461-1.986l0.115,0.67c0.657-0.406,0.459-0.934,0.871-1.674
		c-0.207,0.174-1.059,1.473-1.313,0.699c0.096-0.212,0.14-0.495-0.078-0.913c0.402,0.008,0.314-0.396,0.303-0.9l0.533,0.048
		c-0.141-0.55-0.414-0.513-0.646-0.838c0.066-0.605,0.482-0.723,0.834-0.857c0.107-0.973-0.678,0.656-0.752-0.495
		c0.219-0.804,0.029-1.376-0.289-2.346c0.188-0.563,0.328,0.104,0.48-0.098l-0.424-0.506c0.011-0.122,0.141-0.082,0.207-0.063
		c-0.164-0.423-0.534-0.04-0.676-0.701c-0.588-0.183,0.863-1.357,0.199-2.182c0.151-0.202,0.326,0.099,0.534,0.036
		c-0.437-1.126-0.313-0.966-0.905-1.885l0.338-0.79c-0.393,0.581-0.879-0.153-1.278-0.791c-0.19,0.206-0.356,0.383-0.437,0.5
		l-0.304-1.022c0.086-0.125,0.271-0.023,0.496,0.142c-0.045-0.069-0.09-0.136-0.131-0.188c0.19-0.37,0.504-0.186,0.805,0.075
		c-0.104,0.123-0.216,0.25-0.323,0.375c0.33,0.25,0.691,0.483,1.004,0.427c-0.063-0.064-0.117-0.194-0.148-0.337
		c0.088,0.066,0.168,0.107,0.221,0.076c0.055-0.036-0.063-0.143-0.205-0.309l0.594-0.243l-0.237-0.055l0.351-1.358
		c-0.623-0.956-1.492-1.773-1.808-3.292c0.45,0.365,0.717,0.06,1.231,0.063c-0.528,0.437,0.281,1.181,0.178,1.98
		c0.05-0.417,0.3-0.332,0.386-0.229c0,0-0.131-0.353-0.26-0.704c-0.138-0.351-0.275-0.701-0.275-0.701
		c0.425,0.021,0.306-0.311,0.466-0.688c-0.824,0.308-0.599-1.038-0.875-1.604c0.278-0.047,0.571,0.08,0.53,0.787
		c0.599-0.803-1.021-0.967-0.517-1.748c0.016,0.171-0.024,0.268,0.119,0.327c-0.264-0.391-0.104-1.38,0.149-1.159l0.013,0.171
		c0.073-1.146-0.179-3.473-0.895-3.601c0.092-0.017,0.863,0.101,1.011,0.161l-2.507-1.882c0.619,0.141,2.027-0.642,2.428,0.282
		c0.07-0.277,0.152-0.62-0.098-1.18c-0.076,0.191-0.852,0.521-0.923,0.271c0.634-0.739,0.332-0.505,0.858-1.402
		c-0.113,0.287-1.084,0.047-1.093-0.391c0.148,0.057,0.938-0.106,1.052,0.047l-1.027-1.019c0.191,0.258,0.797-0.014,1.041-0.278
		c-0.174,0.128-0.063-0.945-0.18-1.229l-0.179,0.479c0.039-1.244-1.417-1.104-1.471-2.322c0.206,0.13,1.22,0.258,1.284-0.375
		c-0.502-0.242-2.403-1.043-2.896-2.066l0.251-0.233l-0.4-0.786c0.771,0.433,2.455,1.716,3.109,2.455
		c0.176-0.48,0.319-0.159,0.221-0.847c0.229-0.271,0.435,0.338,0.461,0.541l-0.004-1.626c-0.551,0.128-0.691-1.171-1.15-1.061
		l0.768,1.684c-0.549,0.125-1.691-0.848-1.719-1.986c0.191-0.313,1.018,0.108,1.201,0.065c-0.209-0.127-0.484-1.038-0.359-1.157
		l0.352,0.448c0.141-0.657-0.854-0.948-0.401-1.771c0.009-0.266,0.634-0.869,0.298-0.875c-0.59,0.506-2.548,0.819-3.056,0.595
		c0.044-0.097,0.43-1.433,0.706-1.771c0.439-0.492,1.273,0.493,1.652,0.074c-0.153,0.004-0.375-0.21-0.449-0.302
		c0.095-0.291,0.486,0.055,0.34-0.533c-0.579-0.027-0.115-1.22-0.518-0.222c-0.237-0.561,0.035-0.633-0.082-1.313
		c-0.336,0.267-1.321-0.445-1.561-1.001c0.148,0.015,0.316-0.144,0.393-0.219c-0.101-1.196,0.049-1.87-0.127-2.979
		c0.121-0.122,0.199-0.682,0.479-0.492c-0.126-0.145-0.339-0.262-0.407-0.601c0.379-0.739,0.198,0.751,0.701,0.153
		c-0.334,0.009-0.595-0.813-0.876-1.268c-0.48,0.233,0.085,1.139,0.365,1.596c-0.694,0.11-1.561-0.621-2.065-1.716
		c-0.319-0.886,0.386-0.472,0.261-0.613c-0.152-1.741-1.445-1.252-1.216-2.756c0.334-0.643,0.873-0.186,1.167-0.367
		c0.311,0.715-0.063,1.19,0.049,1.691l0.094-0.657c0.195,0.209,0.396,0.688,0.309,0.982c0.333-0.548-0.467-2.911-0.348-4.306
		c-0.191-0.208-0.422-0.584-0.563-0.357l0.142,0.407c-0.282,0.451-0.641-0.691-0.705-0.132c-0.357-0.512-0.867-1.06-0.815-1.886
		l0.474-0.25c-0.144,0.047-0.201,0.575-0.008,0.767c-0.277-0.283,0.444-1.348-0.298-1.567l-0.226,0.62
		C16.074,1.299,15.391,0.723,15.396,0c-0.424,0.419,0.092,0.146-0.379,0.76c0.627-0.576,0.358,1.771,0.965,0.932
		c-0.556,0.641-0.107,0.934-0.553,1.709c0.159-0.054,0.271-0.297,0.301,0.302c0.053,0.017,0.125,0.065,0.17,0.099
		c-0.002,0.02-0.004,0.026-0.006,0.042l0.014-0.036c0.029,0.021,0.037,0.022,0.006-0.013c0.046-0.153,0.111-0.283,0.195-0.348
		c0.435,0.216,0.6,1.146,0.855,1.425c-0.015,0.361-0.218-0.108-0.359,0.113l0.385,0.413c-0.359,0.116-0.438,1.034-0.809,0.261
		l0.123,0.735c-0.123,0.47-0.095,1.077,0.131,1.415c-0.015,0.358,0.571,0.802,0.229,0.55l0.416,1.116l-0.09,0.027
		c0.137,1.146,0.99,2.252,0.533,3.66c0.156,0.368,0.334,0.749,0.332,1.407l-0.306,0.173c0.179,0.479-0.122,1.53,0.241,1.695
		c-0.792,0.652,0.132,2.423,0.098,3.313l0.424-0.021c0.063,0.603,0.252,1.161,0.498,1.891l0.367-0.091
		c0.375,0.61-0.085,1.688,0.063,2.701c-0.151-0.054-0.142-0.314-0.074-0.509c-0.717,1.305,0.906,2.505,0.379,3.675
		c0.16,0.265,0.132,0.467,0.054,0.669c-0.004-0.024-0.013-0.047-0.025-0.065c-0.002,0.027,0,0.07,0.005,0.113
		c-0.054,0.128-0.118,0.261-0.166,0.4c0.081-0.124,0.146-0.241,0.173-0.34c0.025,0.212,0.1,0.529,0.219,0.838l-0.389,0.17
		c0.006,0.024,0.01,0.044,0.018,0.071c-0.121,0.322,0.211,0.232,0.498,0.042c0.078,0.153,0.17,0.293,0.275,0.397
		c-0.624,0.307,0.287,0.813-0.373,1.213c0.355,0.188,0.389,1.571,1.109,1.688c-0.092,0.018-0.127,0.114-0.146-0.057
		c-0.055,0.359-0.117,0.72,0.102,1.022L20.4,33.746l0.73,0.727c-0.281,0.491-0.451,0.696-0.871,0.256
		c0.672,1.086,0.283,0.897,0.939,1.82l-0.334-0.027c0.033,0.341,0.51,0.864,0.25,1.086c-0.557,0.795,0.072,3.801-0.428,5.785
		c0.957-0.412-0.398,0.927,0.356,0.981c-0.226,0.122-0.349,0.397-0.558,0.086c0.246,0.998-0.338,1.515,0.31,2.191
		c-0.229,0.12-0.34-0.207-0.476-0.102c0.052,0.079,0.205,0.313,0.07,0.421c-0.136,0.104-0.197-0.144-0.299-0.3
		c0.057,1.021,0.768,1.113,1.432,1.178c-0.305,0.526-0.256,0.783,0.188,1.155c-0.215,0.184-0.438,0.488-0.525-0.148
		c-0.021,0.359-0.285,2.193,0.235,2.229c-0.135,0.111-0.041,0.501,0.021,0.596c-0.034,0.807-0.084,0.877-0.037,1.668l0.09-0.22
		c0.643,0.314,0.141,0.659,0.216,1.299l-0.065-0.021c-0.474,1.459,0.229,0.637-0.324,2.071l0.404-0.072
		c0.855,0.148-0.539,1.271-0.229,2.114l0.233-0.299c0.285,0.467-1.201,1.253-1.317,1.707c-0.076,0.098-0.115-0.161-0.168-0.302
		c-0.536,1.184,0.521,0.169,0.62,1.065c-0.285,0.157-0.713-0.231-0.779,0.366c-0.229,0.289,0.854,1.773,0.275,2.574
		c0.227-0.171,0.451-0.344,0.598,0.079c0.05,0.642-0.896,1.685-0.232,2.291c-0.064,0.077-0.121,0.105-0.178,0.105
		c0.161,0.495,0.221,1.596,0.569,1.909c-1.407,0.37,0.487,3.068-0.785,2.979l-0.024,1.5l-0.127-0.049
		c-0.158,0.948,0.118,1.308,0.396,1.667c-0.104,0.215-0.209,0.045-0.274,0.021c-0.366,1.377-0.323,1.517,0.218,2.741l-0.422,0.087
		c0.227,0.34-0.83,1.957-0.48,3.367c-0.045-0.02-0.121-0.055-0.17-0.168c0.347,1.589-1.506,3.554-0.082,4.275l0.256,1.056
		c0.264-1.302,0.627,0.27,0.936-0.243c0.029,0.527-0.604,1.286-0.607,0.642l0.087-0.091c-0.754-0.322-0.461,1.6-0.987,1.501
		c-0.294,2.581-1.04,5.033-1.439,7.426l0.646-0.188l-0.157,0.835c-0.173,0.2-0.517,0.226-0.402-0.369
		c-0.389,0.264,0.139,1.045,0.269,1.084c-0.417,1.134-0.638-0.564-0.705-0.208l-0.024,0.494l0.086-0.1
		c0.189,0.434,0.441,0.508,0.297,1.222c-0.195,0.435-0.411,0.174-0.463,0.349c-0.045-0.007-0.073,0.05-0.063,0.271l-0.223,1.045
		l0.544-0.345c0.159,0.505-0.187,0.986,0.433,0.588c-0.932,0.582-0.973,3.88-1.311,4.273c0.229,0.714,0.109,1.359-0.09,2.147
		c0.137-0.181,0.691-0.198,0.492,0.478c-1.049-0.46-0.722,1.169-1.619,1.566c0.627-0.391-0.262,1.973,0.639,1.347
		c-0.211,0.554-0.418-0.048-0.768,0.331c0.139,1.447-0.9,2.934-1.148,4.628c0.137,0.059,0.42-0.171,0.552,0.235l-0.917,0.717
		c-0.005,0.346,0.758,0.499,0.114,0.979c0.142-0.056,0.353-0.139,0.344,0.093c-1.465,3.079-1.126,6.826-3.431,9.657
		c0.407-0.35,0.344-0.051,0.251,0.286c0.132-0.195,0.343,0.115,0.547,0.134l-0.968,1.146C10.986,127.85,10.062,128.872,10.5,129.197
		z M24.197,61.885c0.076,0.19,0.322,0.574,0.078,0.703C23.822,62.357,24.052,62.2,24.197,61.885z M23.335,47.152
		c0.136,0.138,0.073,0.354-0.075,0.6C23.225,47.576,23.234,47.376,23.335,47.152z M16.646,6.916
		c0.008,0.007,0.014,0.012,0.021,0.017C16.59,7.366,16.623,7.212,16.646,6.916z M17.282,97.968l0.132-0.148
		C17.468,98.212,17.379,98.091,17.282,97.968z M25.342,119.495l-0.045,0.164c-0.375-0.104-0.223-0.535-0.477-0.479
		c-0.078-0.319-0.26-0.741,0.08-0.854l0.447,0.258c-0.125-0.083-0.361-0.026-0.285,0.132c-0.111-0.231,0.832,0.048,0.364-0.456
		l-0.405-0.041c-0.082-0.318-0.383-0.844-0.104-0.959c-0.479-0.196,0.014,0.083-0.57-0.112c0.688,0.301-0.402,0.514,0.37,0.76
		c-0.668-0.254-0.431,0.088-1.047-0.065c0.14,0.094,0.312,0.123,0.115,0.245c0.032,0.036,0.069,0.092,0.092,0.125
		c-0.008,0.003-0.012,0.003-0.021,0.004l0.023,0.003c0.014,0.021,0.02,0.026,0.01,0.001c0.09,0.003,0.186,0.023,0.271,0.065
		c0.247,0.314,0.03,0.582,0.12,0.797c-0.143,0.053-0.123-0.159-0.309-0.213l0.135,0.319c-0.31-0.212-0.698-0.105-0.693-0.478
		l-0.176,0.204c-0.258,0.001-0.459,0.119-0.42,0.318c-0.144,0.049,0.125,0.505-0.036,0.238l-0.083,0.474l-0.075-0.055
		c-0.3,0.291-0.056,1.067-0.886,1c-0.02,0.168-0.025,0.354-0.26,0.463l-0.277-0.175c-0.031,0.21-0.598,0.199-0.391,0.479
		c-0.781-0.421-0.711,0.531-1.045,0.658l0.307,0.29c-0.162,0.146-0.215,0.379-0.271,0.695l0.285,0.239
		c0.064,0.38-0.595,0.273-0.828,0.56c-0.088-0.117,0.006-0.157,0.115-0.146c-0.92-0.268-0.209,1.093-0.934,0.954
		c0.027,0.167-0.056,0.187-0.172,0.17c0.008-0.007,0.008-0.019,0.004-0.031c-0.01,0.005-0.021,0.015-0.031,0.025
		c-0.076-0.014-0.162-0.032-0.238-0.04c0.094,0.033,0.175,0.059,0.225,0.058c-0.05,0.061-0.097,0.178-0.111,0.325l-0.318-0.251
		c-0.002,0.011-0.009,0.015-0.011,0.025c-0.185-0.027,0.067,0.197,0.325,0.37c0.002,0.086,0.021,0.179,0.06,0.276
		c-0.521-0.397-0.065,0.365-0.639-0.042c0.18,0.294-0.238,0.58,0.204,1.136c-0.065-0.063-0.121-0.071-0.08-0.119
		c-0.149,0.03-0.299,0.062-0.245,0.286l-0.388-0.334l0.263,0.694c-0.341-0.113-0.515-0.201-0.654-0.603
		c0.104,0.716-0.091,0.387,0.05,1.063l-0.209-0.257c-0.084,0.092,0.063,0.555-0.177,0.4c-0.61-0.275-1.103,0.835-2.021,0.824
		c0.713,0.671-0.523-0.132-0.076,0.475c-0.176-0.152-0.33-0.193-0.365-0.422c-0.145,0.396-0.647,0.027-0.46,0.681
		c-0.171-0.159-0.141-0.313-0.253-0.4c0.008,0.057,0.031,0.227-0.081,0.139c-0.111-0.088-0.075-0.186-0.09-0.297
		c-0.262,0.243,0.128,0.834,0.497,1.385c-0.335-0.141-0.382-0.051-0.238,0.386c-0.179-0.139-0.397-0.259-0.259-0.458
		c-0.119,0.063-0.822,0.181-0.534,0.627c-0.108-0.089-0.17,0.065-0.165,0.137c-0.2,0.103-0.275,0.112-0.395,0.203
		c-0.229-0.08-0.42-0.197-0.247-0.432c-0.17,0.147-0.34,0.3-0.552,0.231c-0.168-0.18,0.492-0.896-0.223-0.807
		c0.044-0.052,0.091-0.083,0.14-0.105c-0.235-0.087-0.509-0.397-0.898-0.353c1.22-0.678-1.021-0.779,0.163-1.251l-0.26-0.481
		l0.126-0.033c-0.045-0.354-0.374-0.358-0.705-0.365c0.053-0.106,0.185-0.094,0.25-0.11c0.058-0.564-0.01-0.588-0.762-0.772
		l0.373-0.181c-0.271-0.026,0.371-0.917-0.248-1.231c0.045-0.011,0.124-0.026,0.192-0.009c-0.643-0.381,0.65-1.645-0.844-1.362
		l-0.474-0.237c0.046,0.496-0.644,0.136-0.816,0.404c-0.146-0.155,0.271-0.612,0.421-0.413l-0.061,0.059
		c0.772-0.162,0.072-0.66,0.585-0.814c-0.333-0.903-0.21-1.931-0.457-2.797l-0.549,0.288l-0.064-0.311
		c0.108-0.123,0.42-0.253,0.465-0.031c0.294-0.219-0.395-0.271-0.524-0.233c0.094-0.498,0.732-0.059,0.704-0.191l-0.104-0.161
		l-0.05,0.062c-0.286-0.064-0.541,0.006-0.6-0.262c0.062-0.202,0.33-0.203,0.33-0.274c0.042-0.015,0.053-0.041-0.017-0.104
		l-0.079-0.396l-0.406,0.306c-0.282-0.092-0.096-0.363-0.554-0.015c0.71-0.526-0.193-1.51,0-1.752
		c-0.405-0.119-0.496-0.352-0.563-0.651c-0.067,0.104-0.561,0.332-0.592,0.065c1.085-0.296,0.284-0.616,0.96-1.103
		c-0.431,0.368-0.393-0.659-0.993-0.104c0.006-0.238,0.386-0.164,0.57-0.416c-0.605-0.336-0.119-1.187-0.565-1.758
		c-0.139,0.051-0.297,0.241-0.558,0.199l0.521-0.625c-0.122-0.095-0.82,0.243-0.461-0.192c-0.098,0.085-0.244,0.209-0.323,0.148
		c0.047-0.75-0.374-1.306-0.717-1.88c-0.365-0.544-0.691-1.086-0.426-1.978c-0.161,0.292-0.242,0.208-0.317,0.1
		c-0.016,0.108-0.313,0.181-0.478,0.296l0.21-0.737c-0.526,0.195-0.319-0.472-0.803-0.254l0.167,0.098
		c-0.651,0.121-1.039,0.967-1.745,1.341c0.737-0.141-0.574,1.099,0.508,0.941c-0.095,0.16-0.261,0.063-0.396,0.198
		c0.348-0.083,0.473-0.01,0.458,0.27l-0.086,0.02c0.388,0.521,0.292,0.944,0.354,1.67l0.325-0.236
		c0.016,0.16-0.081,0.248-0.139,0.357c0.599-0.13-0.143-0.395,0.5-0.571c-0.623,0.563,0.433,0.974-0.33,1.497
		c0.089,0.206,0.384-0.26,0.474-0.052l-0.198,0.161l0.312-0.084c0.016,0.159-0.234,0.355-0.422,0.448
		c0.008-0.043-0.095-0.067-0.127-0.095c-0.186,0.292,0.313,0.441,0.255,0.54l0.048-0.256c0.486,0.44,0.445,1.328,1.141,1.72
		l0.157-0.111c0.494,0.324-0.055,0.432,0.282,0.864l-0.047-0.003c0.211,0.034,0.35,0.134,0.381,0.274
		c-0.253-0.048-0.309,0.378-0.599,0.298c0.531,0.358,0.367,0.137,1.138,0.231l-0.266,0.179c0.302,0.021,0.444-0.02,0.604,0.206
		c-0.321-0.118-0.39,0.316-0.8,0.2c-0.461,0.748,0.912,0.562,0.058,1.123c0.892-0.033,0.294-0.609,0.515-0.533
		c0.226-0.204,0.673-0.007,0.648,0.188c0.04,0.177-0.941,0.64-0.782,1.057c-0.01-0.044-0.073-0.025-0.083-0.069
		c-0.154,0.228,0.386,0.218,0.114,0.523c0.53-0.055,0.057,0.261,0.696,0.087l-0.278-0.342c0.238,0.167,1.048,0.132,0.809,0.616
		c-0.136,0.014-0.338-0.043-0.456-0.088c-0.15,0.168,0.19,0.168,0.037,0.342c-0.639,0.173-0.293-0.437-0.854-0.513
		c-0.226,0.2,0.606,0.297-0.114,0.4c0.921-0.109,0.029,0.459,0.786,0.535l-0.384,0.104c0.074,0.026,0.283,0.063,0.302,0.152
		L4,122.006c0.493,0.101-0.217,0.573,0.083,0.726c-0.165-0.47,0.419-0.254,0.628-0.543c0.694,0.42-0.875,0.656-0.482,1.252
		c-0.082-0.07,0.118-0.405,0.337-0.323c-0.037,0.148-0.128,0.36-0.3,0.501c0.219,0.407,0.365-0.192,0.657-0.083
		c-0.411,0.297,0.256,0.15,0.465,0.294l-0.382,0.126c-0.084,0.573,0.837-0.13,0.69,0.413l-0.593-0.017l0.216,0.188l-0.452,0.095
		c0.41,0.148,0.352,0.255,0.316,0.545c0.249-0.146,0.703-0.197,0.79,0.018c-0.174,0.227-0.391,0.038-0.23,0.331
		c-0.263,0.012-0.589,0.033-0.283-0.221c-0.13,0.028-0.265,0.011-0.393,0.038c-0.205,0.249,0.082,0.428,0.123,0.54
		c-0.001-0.048,0.001-0.107,0.046-0.152l0.683,0.273c-0.118,0.12-0.252,0.104-0.384,0.086c0.072,0.077,0.269,0.081,0.348,0.205
		c-0.322,0.071-0.638,0.188-0.849,0.047l0.491,0.316c-0.125,0.074-0.293,0.351-0.426,0.333c-0.099,0.307,0.801,0.382,0.67,0.784
		c0.066-0.005,0.135,0.009,0.205,0.061c0.046,0.323-0.229,0.729,0.33,0.93l-0.47,0.408c0.231,0.232,0.585-0.533,0.971-0.15
		c0.3,0.261-0.42,0.303-0.528,0.477c0.339,0.059,1.009,0.118,0.679,0.595c-0.14-0.059-0.09-0.169-0.167-0.246l-0.212,0.351
		c-0.605-0.08-0.512-0.354-0.854,0.032c1.065-0.384,0.457,0.86,1.518,0.465l-0.162,0.241c-0.006-0.048-0.071-0.028-0.079-0.075
		c-0.386,0.503,0.84-0.096,0.862,0.336c-0.021,0.162-0.13,0.318-0.294,0.282l0.391,0.178c0.019,0.093-0.172,0.151-0.19,0.06
		l0.286,0.403l-0.031,0.011c0.192-0.01,0.506,0.019,0.644,0.038c-0.097,0.179-0.135-0.006-0.25,0.081l0.36,0.127
		c-0.221,0.223-0.573,0.142-0.612-0.045c-0.922,0.699,0.351,0.082-0.02,0.854l-0.237-0.171c-0.512,0.424-0.217,0.507-0.454,0.947
		c0.157-0.157,0.666-0.965,1.043-0.819c-0.042,0.11-0.032,0.229,0.238,0.271c-0.361,0.178-0.208,0.273-0.106,0.438l-0.483,0.227
		c0.227,0.123,0.463-0.016,0.729-0.013c0.019,0.088-0.017,0.173-0.084,0.258l2.809,0.881c0.148,0.104,0.293,0.303,0.429,0.479
		c0.382-0.123-0.549-0.446-0.198-0.765c0.377,0.018,0.471-0.287,0.634-0.75c0.287,0.046,0.135,0.3,0.282,0.39l-0.049-0.463
		c0.047-0.016,0.102,0.104,0.13,0.163c0.056-0.224-0.266-0.459-0.122-0.713c-0.261-0.531,0.898,0.433,0.801-0.302
		c0.148,0.082,0.15,0.293,0.284,0.452c0.121-0.605,0.138-0.475,0.097-1.152l0.449,0.116c-0.408-0.196-0.455-0.749-0.492-1.206
		c-0.174-0.11-0.324-0.21-0.406-0.251l0.135-0.455c0.089,0.045,0.167,0.215,0.246,0.431c-0.006-0.051-0.014-0.101-0.02-0.145
		c0.227,0.078,0.354,0.367,0.448,0.667c-0.097-0.06-0.202-0.122-0.304-0.185c0.113,0.318,0.25,0.662,0.447,0.904
		c-0.016-0.065-0.006-0.137,0.02-0.193c0.031,0.085,0.064,0.16,0.105,0.195c0.043,0.037,0.006-0.083-0.021-0.231l0.422,0.429
		l-0.121-0.204l0.639-0.011c-0.063-0.705-0.338-1.574-0.062-2.13c0.164,0.43,0.422,0.575,0.739,0.981
		c-0.465-0.327-0.201,0.469-0.521,0.562c0.163-0.05,0.287,0.166,0.308,0.258c0,0,0.031-0.181,0.063-0.359
		c0.027-0.183,0.056-0.365,0.056-0.365c0.254,0.338,0.285,0.175,0.506,0.223c-0.606-0.583-0.039-0.688-0.033-1.021
		c0.188,0.206,0.33,0.46,0.08,0.578c0.631,0.296-0.331-0.997,0.232-0.768c-0.046,0.047-0.101,0.035-0.029,0.161
		c-0.043-0.286,0.371-0.369,0.463-0.13l-0.047,0.046c0.396-0.202,0.99-0.867,0.563-1.433c0.063,0.065,0.529,0.672,0.604,0.796
		c0,0-0.256-0.569-0.514-1.139c-0.264-0.563-0.527-1.126-0.527-1.126c0.363,0.492,1.543,1.383,1.507,1.873
		c0.136-0.005,0.307-0.013,0.313-0.321c-0.111-0.015-0.726-0.523-0.695-0.629c0.65,0.313,0.377,0.14,1.009,0.336
		c-0.166-0.021-0.738-0.795-0.601-0.885c0.08,0.12,0.66,0.671,0.687,0.785l-0.353-0.96c0.043,0.19,0.537,0.583,0.789,0.709
		c-0.158-0.103,0.271-0.235,0.285-0.379l-0.277-0.033c0.437-0.224-0.594-1.249-0.246-1.539c0.101,0.176,0.75,0.938,0.998,0.853
		c-0.266-0.417-1.317-1.955-1.314-2.485l0.251,0.136l-0.017-0.432c0.396,0.628,1.117,2.063,1.326,2.694
		c0.277,0.027,0.267,0.191,0.433-0.014c0.249,0.111,0.18,0.375,0.136,0.44l0.549-0.325c-0.424-0.369-0.078-0.725-0.435-1.027
		l-0.043,0.875c-0.418-0.37-0.879-1.373-0.517-1.607c0.238,0.075,0.67,0.74,0.813,0.863c-0.099-0.171,0.013-0.548,0.138-0.484
		l0.098,0.34c0.315-0.035-0.283-0.794,0.305-0.644c0.093-0.049,0.732,0.265,0.5,0.029c-0.584-0.31-2.063-1.62-2.35-2.02
		c0.055,0.005,0.791,0.039,1.102,0.167c0.482,0.215,0.729,0.975,1.143,1.159c-0.109-0.105-0.189-0.298-0.211-0.366
		c0.168,0.011,0.324,0.348,0.426,0.135c-0.398-0.404,0.347-0.308-0.289-0.396c0.027-0.269,0.244-0.097,0.395-0.31
		c-0.329-0.18-0.792-0.993-0.775-1.262c0.102,0.104,0.274,0.188,0.355,0.228c0.326-0.304,0.68-0.319,0.954-0.633
		c0.131,0.061,0.392,0.013,0.522,0.232c-0.039-0.11-0.153-0.275-0.084-0.386c0.537,0.117-0.121,0.273,0.455,0.499
		c-0.244-0.222-0.143-0.55-0.188-0.822c-0.434-0.275-0.342,0.269-0.299,0.542c-0.543-0.446-0.913-1.16-0.9-1.694
		c0.076-0.372,0.447,0.17,0.406,0.062c0.496-0.424-0.625-1.181,0.102-1.278c0.48,0.106,0.713,0.537,0.994,0.697
		c-0.035,0.326-0.49,0.16-0.594,0.318l0.313-0.05c0.063,0.159,0.034,0.376-0.132,0.374c0.435,0.114,0.739-0.804,1.329-0.982
		C25.563,119.761,25.529,119.545,25.342,119.495z M7.015,119.178l-0.08,0.093C6.779,119.172,6.892,119.176,7.015,119.178z
		 M8.5,133.135c-0.106-0.028-0.403-0.048-0.209-0.197C8.743,132.815,8.569,132.966,8.5,133.135z M10.232,132.646
		c0.056,0.019,0.113,0.035,0.169,0.053C10.369,132.72,10.316,132.708,10.232,132.646z M14.496,131.825
		c0.033-0.065,0.104-0.1,0.23-0.065C14.766,131.897,14.659,131.894,14.496,131.825z M23.303,119.226l0.012,0.02
		C23.098,119.266,23.18,119.262,23.303,119.226z"/>
</g>
</svg>
