<?xml version="1.0" encoding="utf-8"?>
<!-- Generator: Adobe Illustrator 16.0.0, SVG Export Plug-In . SVG Version: 6.00 Build 0)  -->
<!DOCTYPE svg PUBLIC "-//W3C//DTD SVG 1.1//EN" "http://www.w3.org/Graphics/SVG/1.1/DTD/svg11.dtd">
<svg version="1.1" id="Layer_1" xmlns="http://www.w3.org/2000/svg" xmlns:xlink="http://www.w3.org/1999/xlink" x="0px" y="0px"
	 width="194.009px" height="246.979px" viewBox="0 0 194.009 246.979" enable-background="new 0 0 194.009 246.979"
	 xml:space="preserve">
<path fill="#23E403" d="M101.743,206.972c7.387-0.778,19.577-0.136,20.861-3.989c10.266-28.903,14.115-59.09,28.23-87.992
	c12.19-25.691,1.283-59.09-23.124-74.623c-1.852-1.235-3.769-2.367-5.739-3.391c-9.859-5.106-21.085-7.497-32.437-6.117
	c-2.375,0.156-4.739,0.43-7.077,0.821c-2.337,0.391-4.647,0.897-6.916,1.517c-2.266,0.616-4.489,1.345-6.653,2.183
	c-1.723,0.706-3.409,1.498-5.053,2.368c-8.217,4.353-15.388,10.681-21,18.194c-1.496,2.004-2.882,4.093-4.146,6.25
	c-2.337,4.008-4.156,8.19-5.49,12.476c-0.667,2.143-1.213,4.312-1.645,6.499c-4.097,19.457,1.73,38.571,11.641,55.245
	c1.102,1.853,2.253,3.675,3.447,5.465c9.232,16.788,11.157,36.698,20.14,53.397c1.924,3.854,11.549,0.643,18.322,1.066
	c1.53,0.001,3.059,0.002,4.588,0.003c0.478,0.001,0.957,0.001,1.435,0.001c4.803,0.263,9.619,0.251,14.43,0.251
	c1.806,0,6.221-2.992,3.245-4.691c-5.787-3.306-15.325-3.76-18.412-10.473c-1.453-3.157-8.798-0.964-7.438,1.995
	c1.775,3.86,4.615,5.974,7.859,7.522c-0.342-0.027-0.683-0.063-1.025-0.094c-0.154-0.109-0.309-0.217-0.46-0.327
	c-0.208,0.086-0.429,0.156-0.653,0.225c-0.015-0.002-0.03-0.003-0.045-0.004c-0.886-0.092-1.906,0.061-2.807,0.447
	c-5.067,0.234-11.9-1.563-16.474-0.417c-3.85-18.627-8.341-36.61-18.457-52.53c-1.233-1.94-2.421-3.918-3.552-5.929
	c-10.172-18.093-15.692-38.822-8.53-58.837c0.798-2.14,1.754-4.232,2.878-6.266c1.125-2.032,2.418-4.005,3.891-5.904
	c1.411-2.002,2.943-3.921,4.584-5.742c4.924-5.463,10.825-10.044,17.333-13.344c1.626-0.825,3.291-1.57,4.988-2.229
	c2.061-0.722,4.159-1.333,6.285-1.838c2.138-0.474,4.306-0.85,6.49-1.123c6.547-1.048,13.604-0.406,20.021,0.236
	c2.338,0.321,4.612,0.81,6.818,1.45c2.206,0.642,4.342,1.436,6.4,2.368c50.301,24.442,24.637,80.321,9.238,119.5
	c-5.133,11.561-3.209,26.333-8.982,37.252c-2.567,4.496-12.191,2.569-19.063,3.834c-1.361,0.196-2.722,0.396-4.082,0.602
	c-1.359,0.205-2.718,0.415-4.076,0.63c-2.904,0.667-6.122,0.969-9.362,1.384c-1.62,0.208-3.244,0.443-4.836,0.767
	c-4.778,1.134-14.402,4.346-11.191,10.123c1.28,1.287,3.205,1.287,5.14,2.188c-0.235,0.14-0.485,0.26-0.701,0.423
	c-1.876,1.889-5.084,3.173-3.801,6.385c1.283,3.211,3.85,2.569,6.416,3.854c-1.924,0.643-4.491,2.569-4.491,3.854
	c0.642,11.562,17.324,7.708,25.665,8.992c-2.566,0-3.208,3.211-1.925,5.139c1.283,1.284,2.566,1.284,3.85,0
	c6.416-5.781,14.115-5.781,21.912-9.063c1.661-1.165,2.209-2.771,1.612-4.635c-0.624-1.943-2.426-2.864-4.772-2.476
	c-12.336,6.539-27.093,7.182-40.567,3.328c12.833-5.781,26.948-2.569,40.717-6.193c1.523-0.267,3.01-0.949,4.41-1.651
	c1.201-0.603,1.566-1.803,1.418-3.135c-0.137-1.221-0.857-1.981-1.94-2.417c-0.524-0.211-1.093-0.442-1.641-0.44
	c-2.643,0.014-5.301-0.065-7.922,0.199c-11.944,0.792-24.135,6.572-36.326,3.36c11.549-8.35,25.665-1.927,38.469-5.478
	c1.779-0.297,3.551-0.647,5.313-1.012c1.51-0.312,2.98-1.057,4.329-1.843c2.577-1.302,1.935-3.871,0.651-5.155
	c-5.133-3.212-10.907-0.643-16.22-0.42c-1.571,0.192-3.142,0.405-4.706,0.639c-9.229,1.065-18.212,5.562-27.194,2.351
	c7.485-2.142,15.416-2.944,23.231-4.188C98.636,207.537,100.194,207.271,101.743,206.972z"/>
<g>
	<g>
		<path fill="#FFFFFF" d="M1.915,46.679c6.417,2.569,12.833,5.138,19.249,7.707c1.175,0.471,2.843-0.065,3.964-0.454
			c0.12-0.042,2.826-1.209,1.896-1.582c-6.416-2.568-12.832-5.138-19.248-7.707c-1.176-0.471-2.843,0.065-3.964,0.455
			C3.691,45.139,0.985,46.306,1.915,46.679z M193.646,47.779c-1.594-1.176-4.818-0.157-6.418,0.442
			c-7.479,2.804-14.979,5.547-22.456,8.35c-0.57,0.215-4.451,1.888-2.9,3.029c1.595,1.176,4.818,0.157,6.418-0.442
			c7.478-2.804,14.978-5.546,22.456-8.35C191.315,50.594,195.196,48.92,193.646,47.779z M26.574,144.611
			c-5.711,4.277-12.628,6.424-18.607,10.275c-1.021,0.658-1.672,2.154-0.405,2.938c1.34,0.83,3.198,0.346,4.425-0.445
			c5.984-3.855,12.868-5.979,18.607-10.275C33.97,144.574,28.849,142.906,26.574,144.611z M152.102,162.047
			c-1.507-1.279-7.204,1.102-5.79,2.303c5.262,4.467,11.617,7.406,16.041,12.846c1.182,1.453,7.119-0.668,5.789-2.303
			C163.718,169.455,157.362,166.516,152.102,162.047z M93.664,16.205c-0.198,2.234,4.017,1.673,4.193-0.297
			c0.44-4.984,0.754-9.947-0.458-14.848c-0.499-2.013-4.632-0.889-4.132,1.132C94.414,6.832,94.082,11.491,93.664,16.205z
			 M54.512,26.284c-1.632-2.451-7.512,0.005-5.659,2.787c1.283,1.927,2.566,3.854,3.85,5.781c1.632,2.451,7.512-0.005,5.659-2.787
			C57.078,30.137,55.795,28.21,54.512,26.284z M12.669,108.666c2.957-0.542,5.966-1.035,8.753-2.199
			c0.608-0.254,3.049-1.695,1.124-2.031c-1.547-0.27-3.271,0.14-4.81,0.689c-0.03,0.006-0.043,0.009-0.077,0.017
			c-0.699,0.146-1.402,0.277-2.104,0.41c-1.838,0.348-3.682,0.674-5.521,1.018c-2.925,0.545-6.604,0.915-9.123,2.618
			c-1.285,0.869-1.279,1.662,0.446,1.668c1.518,0.005,3.375-0.321,4.902-0.985c0.496-0.101,0.992-0.201,1.489-0.297
			C9.386,109.257,11.029,108.966,12.669,108.666z M188.172,122.889c-7.075-4.041-15.486-4.753-22.456-8.992
			c-2.291-1.394-7.754,1.74-4.787,3.545c7.008,4.263,15.402,4.963,22.456,8.992C185.704,127.759,191.167,124.599,188.172,122.889z
			 M147.358,20.072c-1.275,0.124-3.207,0.489-4.154,1.454c-2.226,2.268-4.129,4.822-6.031,7.36
			c-0.641,0.855,2.311,0.534,2.455,0.506c1.186-0.22,2.876-0.61,3.646-1.639c1.747-2.33,3.477-4.688,5.52-6.77
			C149.749,20.008,147.946,20.015,147.358,20.072z M118.371,102.382c-6.295-1.211-12.833-0.053-19.029,1.604
			c1.89-15.386,3.587-31.594,1.402-46.953c-0.151-1.064-1.715-1.262-3.234-0.908c-1.466,0.294-2.893,1.098-2.968,2.112
			c-1.707,23.109-12.685,44.721-18.839,66.797c-0.586,2.104,3.576,1.241,4.342,0.958c4.379-1.612,8.593-3.52,12.771-5.545
			c-0.202,2.6-0.823,5.235-1.314,7.72c-1,5.056-2.228,10.066-3.477,15.065c-2.007,8.039-4.551,16.043-6.082,24.193
			c-0.479,2.551,5.251,1.197,5.997-0.279c10.612-21.033,23.665-41.148,31.647-63.412
			C119.854,102.992,118.936,102.491,118.371,102.382z M93.24,146.258c0.403-1.506,0.8-3.014,1.177-4.521
			c1.239-4.961,2.424-9.94,3.417-14.958c0.687-3.471,1.429-7.098,1.218-10.654c-0.096-1.612-3.611-0.865-4.338-0.501
			c-3.945,1.977-7.884,3.896-11.923,5.619c3.645-12.23,8.571-24.346,12.379-36.68c-0.494,7.58-1.407,15.142-2.32,22.489
			c-0.215,1.733,2.535,1.532,3.534,1.236c5.231-1.547,11.035-3.262,16.578-2.686C107.765,119.742,100.522,133.025,93.24,146.258z"/>
	</g>
</g>
</svg>
