<?xml version="1.0" encoding="utf-8"?>
<!-- Generator: Adobe Illustrator 16.0.0, SVG Export Plug-In . SVG Version: 6.00 Build 0)  -->
<!DOCTYPE svg PUBLIC "-//W3C//DTD SVG 1.1//EN" "http://www.w3.org/Graphics/SVG/1.1/DTD/svg11.dtd">
<svg version="1.1" id="Layer_1" xmlns="http://www.w3.org/2000/svg" xmlns:xlink="http://www.w3.org/1999/xlink" x="0px" y="0px"
	 width="49.005px" height="426px" viewBox="0 0 49.005 426" enable-background="new 0 0 49.005 426" xml:space="preserve">
<path fill="#56FFE5" d="M28.412,10.586c-0.299,0.326-0.527,0.603-0.741,0.865c-1.244-3.124-2.841-6.109-3.715-9.331
	c0.003-0.026,0.011-0.045,0.018-0.067C24.254,0.08,21.27-0.793,20.351,0.9c-5.298,9.84-7.013,22.512-10.647,33.18
	c-2.158,6.33-1.881,13.005-4.479,19.298c-0.498,1.207-0.782,2.334-0.974,3.446c-0.793,0.333-1.428,1.068-1.524,2.184
	C0.156,87.446,0.502,378.193,2.012,390.21c-2.254,0.959-2.287,3.24-1.667,6.458c0.191,0.985,0.922,1.502,1.734,1.88
	c-0.398,6.555-0.683,14.253,0.944,20.471c2.151,8.188,10.754,5.491,17.004,6.211c5.858,0.678,13.555,2.337,17.517-3.177
	c0.812-1.116,1.372-2.457,1.812-3.873c0.938,0.104,1.867,0.18,2.814-0.176c2.299-0.877,3.477-3.226,3.705-5.619
	c0.235-2.588,0.21-5.259,0.272-7.854c0.029-1.318,0.048-2.638-0.166-3.854c0.841-1.067,1.155-2.648,1.251-3.899
	c0.133-1.734-0.277-3.585-1.004-5.177c0.063-0.626,0.158-1.225,0.185-1.869c0.144-2.971,1.151-5.312,1.627-8.151
	c0.874-5.3,0.331-11.817-0.815-17.062c0.498-6.938-0.052-13.99,0.081-20.928c0.27-14.784,1.49-29.523,1.663-44.327
	c0.34-28.143-1.766-56.288-1.416-84.408c0.344-27.718-0.113-55.429,0.078-83.088c0.092-13.204-0.473-26.587-1.111-39.821
	c-0.635-13.287,0.465-26.674-1.398-39.836c-0.092-0.667-0.357-1.195-0.727-1.592c-0.287-5.619-3.059-11.227-4.925-16.362
	c-1.446-3.985-4.472-8.855-4.442-13.29c0.026-3.42-0.885-6.712-2.678-9.559C31.533,10.032,29.614,9.264,28.412,10.586z
	 M6.254,307.923c0.029-28.034,0.531-56.063,0.867-84.097c0.343-28.187-0.169-56.374,0.376-84.554
	c0.413-21.868,5.165-47.785,2.206-70.338c1.335,1.184,3.033,1.88,5.39,1.734c1.509-0.094,2.711-0.802,3.671-1.839
	c-0.918,24.228-1.106,48.489-0.786,72.739c0.339,26.265-1.93,54.696,1.583,80.688c0.383,2.926,0.679,5.869,0.959,8.825
	c0.369,15.302,0.693,30.599,0.988,45.908c-0.218,9.783-0.542,19.541-0.657,29.112c-0.177,14.327,0.38,28.88,0.959,43.199
	c0.535,13.309-0.066,27.61,2.07,40.698c-3.948-0.27-7.888-0.576-11.835-0.876c-2.114-0.162-4.604-0.607-6.843-0.33
	C8.099,362.308,6.236,334.51,6.254,307.923z M34.229,412.205c-0.144,0.753-0.239,1.782-0.408,2.839
	c-0.06,0.177-0.086,0.371-0.104,0.57c-0.354,1.929-1.037,3.839-2.819,4.296c-2.376,0.61-5.515-0.082-7.958-0.247
	c-2.217-0.158-6.158-1.438-8.541-1.022c-5.951,1.041-6.674-2.457-6.881-7.518c-0.181-4.218-0.808-7.739-1.413-11.657
	c1.173,0.057,2.354,0.082,3.453,0.435c1.31,0.438,2.859,0.989,4.206,1.198c6.5,0.985,13.802,1.738,20.376,1.12
	C33.982,405.553,34.864,408.793,34.229,412.205z M31.031,397.653c-2.763-0.379-6.124,0.288-8.983,0.172
	c-3.881-0.161-7.534-0.888-11.293-1.832c-0.786-0.348-1.594-0.584-2.431-0.711c-0.358-0.004-4.859-1.083-4.822-1.832
	c0.402,0.019,0.742-0.173,0.981-0.465c0.03-0.008,0.044-0.015,0.074-0.015c0.568-0.098,0.904-0.472,1.085-0.926
	c4.04,0.24,8.378,1.293,12.233,1.821c4.685,0.655,9.5,1.067,14.218,1.348c1.904,0.116,3.56-0.029,4.933-0.435
	C36.554,397.832,34.057,398.068,31.031,397.653z M36.458,213.169c-0.04,30.093-0.073,60.191-0.018,90.285
	c0.029,15.043,0.387,30.078,0.773,45.118c0.289,11.495,1.949,23.755,1.425,35.326c-0.815,0.015-1.601,0.58-1.771,1.689
	c-0.307,2.06,0.859,4.645-1.822,4.926c-3.048,0.314-6.069-0.071-9.105-0.349c0.011-0.079,0.029-0.173,0.021-0.27
	c-0.324-2.997-0.59-6.027-0.837-9.062c0.505,0.087,1.165-0.318,1.099-1.012c-1.789-19.11-2.427-38.304-2.6-57.538
	c0.088-7.162,0.217-14.264,0.35-21.257c0.443-23.641,2.582-48.815-0.159-72.463c-0.239-15.59-0.852-31.146-2.184-46.65
	c0-0.094-0.044-0.153-0.066-0.228c0.122-13.399,0.469-26.82-0.055-39.964c-1.007-24.924-0.173-50.178,0.9-75.118
	c1.424,1.802,3.373,2.843,6.419,2.203c2.516-0.54,4.723-2.476,6.264-4.896C35.042,113.565,36.524,163.361,36.458,213.169z
	 M27.316,27.39c2.553,8.646,6.825,17.954,9.009,26.933c-0.619-0.105-1.346,0.284-1.413,1.071c-0.343,4.03-2.354,7.769-5.751,9.963
	c-4.413,2.847-5.888-3.764-6.799-6.289c-0.509-1.383-2.686-1.053-3.025,0.27c-0.535,2.131-1.11,4.162-2.154,6.109
	c-3.369,6.263-7.43-1.468-8.987-4.735c-0.1-0.442-0.181-0.902-0.299-1.337c0.771-3.492,2.535-6.514,3.512-10.117
	c1.531-5.694,2.063-11.391,4.132-16.961c1.962-5.289,3.826-10.754,5.364-16.306c0.908,0.364,1.889,0.483,2.97,0.349
	c0.099-0.003,0.213-0.033,0.32-0.052C25.184,20.172,26.31,23.989,27.316,27.39z"/>
</svg>
